<svg width="78" height="84" fill="none" xmlns="http://www.w3.org/2000/svg"><path d="M10.246 45.887A2.099 2.099 0 009.04 44.48a2.072 2.072 0 00-1.843.11l-5.359 2.86a3.75 3.75 0 00-1.59 1.889 3.775 3.775 0 00-.076 2.473l10.31 30.612a2.1 2.1 0 001.206 1.406 2.073 2.073 0 001.842-.11l5.36-2.86a3.774 3.774 0 001.59-1.898 3.806 3.806 0 00.076-2.48s-9.931-29.467-10.31-30.596zm66.069-2.924a2.031 2.031 0 00-2.923.49L60.788 58.087c-.244 3.801-3.131 6.662-6.49 6.1l-13.516-2.67a9.835 9.835 0 00-4.966.3 1.57 1.57 0 01-1.19-.115 1.593 1.593 0 01-.672-2.117c.187-.371.511-.654.903-.787a13.273 13.273 0 016.522-.395s13.704 2.687 13.814 2.687c2.793-.025 3.418-5.775.613-6.843-6.854-2.51-17.58-5.513-23.07-10.115-6.323-4.863-12.643-3.152-18.294 4.362l7.936 23.548c4.408 2.197 16.143 7.5 20.887 9.53a6.415 6.415 0 006.506-.806c6.408-4.427 12.792-9.263 17.759-15.567a81.46 81.46 0 009.854-15.25c1.125-2.087.675-5.7-1.069-6.986zm-58.65-12.464h.29a7.556 7.556 0 01-.064-1.057c0-1.328.27-2.642.792-3.861a9.775 9.775 0 012.245-3.232 9.673 9.673 0 0111-1.66 9.73 9.73 0 013.09 2.428 9.791 9.791 0 011.884 3.457 9.828 9.828 0 01.373 3.925h12.577a9.826 9.826 0 012.257-7.382 9.727 9.727 0 013.09-2.428 9.678 9.678 0 0111 1.66 9.776 9.776 0 012.245 3.232 9.82 9.82 0 01.792 3.861c.003.353-.018.706-.065 1.057h1.455a5.76 5.76 0 004.08-1.701 5.823 5.823 0 001.692-4.103v-9.04a5.812 5.812 0 00-1.267-3.64 5.755 5.755 0 00-3.26-2.033l-3.524-.78c-2.663-.38-4.578-3.916-6.127-5.772a8.24 8.24 0 00-2.84-2.358 8.192 8.192 0 00-3.578-.877L40.67 0a8.508 8.508 0 00-5.853 2.341l-8.39 8.161-9.037 1.756a8.104 8.104 0 00-4.213 2.298 8.178 8.178 0 00-2.19 4.286l-.517 3.09a7.417 7.417 0 001.635 5.949 7.343 7.343 0 002.495 1.921c.96.452 2.005.69 3.065.697z" fill="#EEE"/><path d="M27.607 22.923a6.473 6.473 0 00-4.546 1.936 6.546 6.546 0 00-1.876 4.591c0 1.72.674 3.37 1.877 4.591a6.473 6.473 0 004.545 1.937 6.474 6.474 0 004.546-1.937 6.547 6.547 0 001.876-4.59c0-1.72-.674-3.37-1.877-4.592a6.473 6.473 0 00-4.545-1.936zm0 8.275a1.742 1.742 0 01-1.217-.524 1.761 1.761 0 010-2.464 1.742 1.742 0 011.217-.524c.458.008.895.196 1.217.524a1.76 1.76 0 010 2.464 1.742 1.742 0 01-1.217.524zm31.913-8.275a6.472 6.472 0 00-4.557 1.93 6.546 6.546 0 00-1.883 4.597c0 1.723.677 3.375 1.883 4.598a6.473 6.473 0 004.557 1.93 6.474 6.474 0 004.557-1.93 6.546 6.546 0 001.883-4.598 6.546 6.546 0 00-1.883-4.597 6.473 6.473 0 00-4.557-1.93zm0 8.275a1.742 1.742 0 01-1.219-.523 1.761 1.761 0 010-2.466c.322-.328.76-.516 1.219-.523.459.007.897.195 1.219.523a1.761 1.761 0 010 2.466c-.322.329-.76.516-1.219.523z" fill="#EEE"/></svg>