<svg width="84" height="84" fill="none" xmlns="http://www.w3.org/2000/svg"><path d="M37.84 0a2.323 2.323 0 00.174 1.768 1.611 1.611 0 01-.489 2.26 1.599 1.599 0 01-.813.24c-1.928-.088-2.275-2.975-2.096-4.252a36.224 36.224 0 00-22.929 9.7 2.258 2.258 0 001.35 1.114 1.617 1.617 0 011.286 1.848c-.697 2.62-4.108.64-4.922-.669A36.508 36.508 0 000 35.135a2.31 2.31 0 001.763-.175 1.582 1.582 0 012.187.413 1.595 1.595 0 01-.377 2.2 4.966 4.966 0 01-3.557.78 36.488 36.488 0 009.67 23.014 2.266 2.266 0 001.112-1.353 1.592 1.592 0 011.222-1.28 1.58 1.58 0 01.62-.01c2.63.677.629 4.108-.667 4.92a36.28 36.28 0 0023.056 9.43 2.465 2.465 0 00-.175-1.768 1.601 1.601 0 01.425-2.193 1.589 1.589 0 012.195.377 5.117 5.117 0 01.779 3.568c3.54-.17 7.034-.868 10.368-2.07.005-3.507-.003-9.996 0-13.411-15.696 9.496-36.715-2.527-36.458-21.04-.26-18.51 20.769-30.54 36.459-21.04a10.426 10.426 0 011.908-6.156 10.375 10.375 0 015.158-3.846A35.998 35.998 0 0037.84 0z" fill="#EEE"/><path d="M48.622 35.709l-1.175-.112a2.792 2.792 0 01-2.367-1.963 2.813 2.813 0 01.858-2.958l2.684-2.357v-9.015a20.376 20.376 0 00-5.67-2.883l-4.017 9.317a2.792 2.792 0 01-2.582 1.643 2.781 2.781 0 01-2.53-1.722l-3.939-9.222a21.178 21.178 0 00-10.496 7.677l7.59 6.69a2.814 2.814 0 01.755 2.983 2.813 2.813 0 01-2.422 1.89l-9.972.908a21.018 21.018 0 004.05 12.375l8.685-5.176a2.797 2.797 0 013.063.197 2.814 2.814 0 011.05 2.893l-2.223 9.78a20.908 20.908 0 0012.989 0l-2.223-9.908a2.81 2.81 0 011.135-2.848 2.787 2.787 0 013.057-.098l3.7 2.214c.004-2.313-.004-8.01 0-10.305zm-12.196 6.036a5.185 5.185 0 01-3.63-1.547 5.216 5.216 0 010-7.322 5.185 5.185 0 013.63-1.547 5.185 5.185 0 013.632 1.547 5.217 5.217 0 010 7.322 5.185 5.185 0 01-3.632 1.547zm35.204-6.482c.837.272 3.627 1.273 4.446 1.513C76.027 36.723 84 30.293 84 30.26V17.744l-5.97 4.873c-1.287 1.172-3.02.623-4.447.064l-2.985-1.02a1.596 1.596 0 01-1.068-1.496 1.607 1.607 0 011.04-1.516 1.594 1.594 0 011.267.066l4.192 1.434 7.796-6.371a7.228 7.228 0 00-2.524-4.053 7.19 7.19 0 00-4.494-1.585H58.975a7.21 7.21 0 00-5.18 2.24 7.255 7.255 0 00-1.998 5.293c.006 1.031-.004 3.066 0 4.093 2.47 2.038 5.503 4.475 7.956 6.499.81-.317 3.575-1.207 4.414-1.513a1.588 1.588 0 011.997 1.01 1.601 1.601 0 01-.98 2.016l-.953.319c-1.907.534-4.69 2.262-6.479.637 0 0-5.342-4.375-5.955-4.858-.03.909.021 11.341 0 12.519 2.265 1.833 5.698 4.663 7.956 6.498l1.905-.653c.645-.145 2.763-1.172 3.414-.892a1.587 1.587 0 011.174 1.48 1.597 1.597 0 01-1.063 1.562c-.56.197-3.766 1.296-4.398 1.513-1.86.713-3.331-.756-4.637-1.848l-4.35-3.551c.024 3.748-.019 8.801 0 12.503 2.329 1.913 7.955 6.514 7.955 6.514.611-.213 3.732-1.273 4.414-1.513a1.58 1.58 0 011.99 1.002 1.594 1.594 0 01-.974 2.008c-6.144 2.058-5.41 2.891-10.686-1.704l-2.7-2.198c-.003 2.717.003 9.727 0 12.519 1.655 1.35 6.177 5.047 7.956 6.498l4.414-1.497a1.58 1.58 0 011.994 1 1.594 1.594 0 01-.978 2.01l-4.398 1.513a3.118 3.118 0 01-3.033-.557l-5.955-4.858V76.8a7.223 7.223 0 002.106 5.087A7.18 7.18 0 0058.975 84h17.832a7.182 7.182 0 005.08-2.108A7.227 7.227 0 0084 76.801v-9.174L78.03 72.5a3.207 3.207 0 01-2.001.716 40.299 40.299 0 01-5.431-1.688 1.589 1.589 0 01-.954-2.013 1.59 1.59 0 011.986-.997l4.399 1.513L84 63.502V50.999l-5.97 4.873a3.145 3.145 0 01-3.018.542 525.59 525.59 0 01-4.414-1.497 1.597 1.597 0 01-.964-2.021 1.598 1.598 0 011.996-1.005c.825.276 3.542 1.215 4.399 1.513L84 46.889V34.371l-5.97 4.873c-1.442 1.37-3.644.342-5.225-.207l-2.207-.748a1.596 1.596 0 01-.963-2.02 1.59 1.59 0 011.995-1.006z" fill="#EEE"/></svg>