<svg width="95" height="84" fill="none" xmlns="http://www.w3.org/2000/svg"><path d="M93.84 59.376a13.852 13.852 0 00.587-9.49l-2.904-9.741a7.327 7.327 0 00-1.663-2.924 7.243 7.243 0 00-2.786-1.86s-2.085-.764-2.162-.78a38.23 38.23 0 01-.618 6.873 6.712 6.712 0 013.454 3.426A6.798 6.798 0 0188 49.76l-2.564 7.746c-.398 1.16-.164 3.024-1.848 3.04-2.154-.093-1.562-2.644-1.072-4.037l2.664-8.048a3.645 3.645 0 00-.947-3.36 3.576 3.576 0 00-1.536-.923 3.552 3.552 0 00-1.787-.06 3.87 3.87 0 00-1.589.777c-.463.379-.834.86-1.083 1.406a6548.922 6548.922 0 00-6.519 10.644 16.66 16.66 0 00-3.12 7.512c-.606 4.146 1.35 7.94 2.796 12.062a11.608 11.608 0 011.174 5.58l-.356 1.76s13.753-.462 17.934-.436c.32-.17.57-.451.703-.792.133-.34.141-.716.023-1.062l-1.344-3.975a12.894 12.894 0 01.402-9.272l3.908-8.946zm-68.46 1.169a13.909 13.909 0 00-2.008-3.507c-1.181-1.92-5.493-8.944-6.596-10.737a3.655 3.655 0 00-1.885-1.947 3.607 3.607 0 00-2.696-.102 3.648 3.648 0 00-2.024 1.8 3.7 3.7 0 00-.238 2.711c.504 1.802 3.035 8.358 3.038 10.14a1.568 1.568 0 01-.421 1.159 1.54 1.54 0 01-1.125.483c-1.683-.015-1.451-1.879-1.847-3.039l-2.564-7.745a6.762 6.762 0 01-.003-4.242 6.7 6.7 0 012.52-3.395 5.8 5.8 0 011.174-.655 35.907 35.907 0 01-.479-3.63 37.226 37.226 0 01-.138-3.258c-.078.016-2.163.78-2.163.78a7.242 7.242 0 00-2.786 1.86 7.328 7.328 0 00-1.663 2.924l-2.904 9.74a13.852 13.852 0 00.587 9.491l3.908 8.946a12.894 12.894 0 01.402 9.273l-1.344 3.974a1.59 1.59 0 00.206 1.383 1.568 1.568 0 001.215.674c1.817.032 17.239.374 17.239.374l-.371-2.166a11.712 11.712 0 011.081-5.003c2.147-5.39 4.383-10.922 1.885-16.286z" fill="#EEE"/><path d="M74.439 46.582c1.46-2.701 3.426-5.612 6.827-5.641a34.947 34.947 0 00-.544-15.057 34.76 34.76 0 00-6.827-13.4 34.38 34.38 0 00-11.82-9.208A34.085 34.085 0 0047.5 0a34.085 34.085 0 00-14.576 3.276 34.379 34.379 0 00-11.82 9.209 34.757 34.757 0 00-6.827 13.4 34.945 34.945 0 00-.544 15.056 6.588 6.588 0 013.066.926 6.66 6.66 0 012.279 2.268c.948 1.525 5.801 9.457 6.858 11.159a18.763 18.763 0 013.537 8.82 34.223 34.223 0 0018.034 5.143c6.367 0 12.61-1.78 18.034-5.142a19.558 19.558 0 013.661-8.992l5.237-8.54zM47.499 9.678a24.626 24.626 0 0115.383 5.42 25.012 25.012 0 018.714 13.89 9.478 9.478 0 01-2.95 0 10.262 10.262 0 01-3.754-1.404 39.612 39.612 0 00-17.02-3.811 39.612 39.612 0 00-17.009 3.874c-2.61 1.41-4.317 1.707-6.24.873-.273-.156-.677-.4-.944-.538a24.945 24.945 0 018.85-13.206A24.573 24.573 0 0147.5 9.678zM24.084 42.683a2.057 2.057 0 01.403-1.906 2.021 2.021 0 011.805-.694l2.966-.327a5.356 5.356 0 012.723.401 5.407 5.407 0 012.174 1.703l4.88 6.405c1.265 1.387 1.55 5.703 1.978 7.45a1.948 1.948 0 01-.683 1.84 1.906 1.906 0 01-1.928.285 24.814 24.814 0 01-8.804-5.996 25.086 25.086 0 01-5.514-9.16zM47.5 44.431a7.12 7.12 0 01-5.02-2.133 7.249 7.249 0 01-2.075-5.082c0-1.904.745-3.73 2.075-5.082A7.12 7.12 0 0147.5 30a7.12 7.12 0 015.02 2.134 7.25 7.25 0 012.074 5.082c0 1.904-.745 3.73-2.074 5.082a7.12 7.12 0 01-5.02 2.133zm9.098 13.409a1.899 1.899 0 01-1.928-.285 1.948 1.948 0 01-.683-1.84c.43-1.771.725-6.043 1.962-7.45l4.897-6.405a5.406 5.406 0 012.173-1.703 5.357 5.357 0 012.723-.401c.414.047 3.224.354 3.575.397a1.903 1.903 0 011.398.88 1.941 1.941 0 01.201 1.65 25.086 25.086 0 01-5.514 9.16 24.81 24.81 0 01-8.804 5.997z" fill="#EEE"/><path d="M47.5 33.115a4.045 4.045 0 00-2.844 1.217 4.118 4.118 0 00-1.174 2.882c0 1.08.422 2.115 1.174 2.882a4.045 4.045 0 002.844 1.217 4.045 4.045 0 002.843-1.217 4.118 4.118 0 001.174-2.882c0-1.08-.422-2.115-1.174-2.882a4.045 4.045 0 00-2.843-1.217z" fill="#EEE"/></svg>