<svg width="44" height="44" fill="none" xmlns="http://www.w3.org/2000/svg"><g clip-path="url(#clip0_165_968)"><path d="M43.99 13.527c0-.752-.296-1.416-.855-1.919l-6.688-6.011c-.832-.748-1.88-1.512-3.355-1.512h-.002c-1.476 0-2.525.766-3.356 1.514l-6.684 6.016a2.518 2.518 0 00-.854 1.92l.003 7.721H17.76c.804-1.668 1.363-4.303.735-6.277-.442-1.389-1.416-2.304-2.817-2.648a.687.687 0 00-.833.514c-.077.33-.147.641-.213.933-.826 3.636-.932 4.104-3.213 5.595-1.611 1.053-1.726 1.189-2.728 2.65-.102.15-.215.315-.342.497-.405.588-.925.852-1.679.859h-.058v-.165c0-.856-.697-1.553-1.553-1.553H1.553c-.856 0-1.553.697-1.553 1.553v15.148c0 .856.697 1.553 1.553 1.553h3.506c.856 0 1.553-.697 1.553-1.553v-.705c.31.108.62.224.939.343 1.562.583 3.332 1.244 5.96 1.244h9.126c.39 0 .76-.08 1.096-.227.33.149.687.227 1.054.227l16.633-.005A2.584 2.584 0 0044 36.656l-.01-23.129zM5.238 38.362a.18.18 0 01-.178.178H1.553a.18.18 0 01-.178-.178V23.214a.18.18 0 01.178-.178h3.506a.18.18 0 01.178.178v15.148zm8.274-.493c-2.38 0-3.955-.588-5.48-1.157-.46-.172-.93-.348-1.419-.506V24.754h.066c1.201-.01 2.144-.5 2.803-1.452l.344-.501c.925-1.348.925-1.348 2.346-2.278 2.747-1.794 2.95-2.686 3.802-6.44l.038-.17c.567.301.953.791 1.174 1.483.648 2.037-.374 5.174-1.175 6.098a.688.688 0 00.52 1.137h7.86a1.39 1.39 0 011.389 1.39 1.39 1.39 0 01-1.39 1.389h-5.418a.687.687 0 100 1.375h6.554c.766 0 1.39.623 1.39 1.389a1.39 1.39 0 01-1.39 1.389h-6.554a.687.687 0 100 1.375h5.84c.767 0 1.39.623 1.39 1.389a1.39 1.39 0 01-1.39 1.389h-5.84a.688.688 0 000 1.375h3.666a1.39 1.39 0 010 2.778h-9.126zm27.908-.005l-16.393.005a2.748 2.748 0 00-.004-2.786 2.768 2.768 0 002.554-2.756 2.75 2.75 0 00-.646-1.773 2.766 2.766 0 001.36-2.38 2.768 2.768 0 00-1.661-2.534 2.75 2.75 0 00.525-1.62 2.767 2.767 0 00-2.764-2.764h-.816l-.003-7.722c0-.361.13-.655.4-.897l6.683-6.016c.916-.824 1.622-1.16 2.437-1.161.815 0 1.52.336 2.437 1.16l6.688 6.011c.269.242.4.535.4.897l.009 23.129c0 .665-.54 1.206-1.206 1.207zm-4.198-9.304c.1.83-.122 1.587-.643 2.19-.614.709-1.633 1.184-2.792 1.317v.875a.688.688 0 01-1.375 0v-.885c-1.718-.236-3.053-1.322-3.44-2.872a.687.687 0 111.335-.332c.356 1.428 1.793 1.904 2.916 1.876.965-.023 1.874-.368 2.316-.879.268-.31.372-.678.318-1.125-.129-1.057-1.01-1.663-2.86-1.967-2.942-.483-3.628-1.976-3.684-3.142-.079-1.617 1.053-2.973 2.817-3.373.092-.02.186-.039.282-.054v-.894a.688.688 0 011.375 0v.888c1.258.187 2.5.916 3.12 2.394a.688.688 0 11-1.267.532c-.597-1.42-2.04-1.789-3.206-1.525-.881.2-1.803.821-1.748 1.965.018.358.07 1.448 2.534 1.852.913.15 3.692.606 4.002 3.159zm-4.129-15.256a2.451 2.451 0 002.449-2.449 2.451 2.451 0 00-2.449-2.448 2.451 2.451 0 00-2.448 2.448 2.451 2.451 0 002.448 2.449zm0-3.522c.592 0 1.074.482 1.074 1.073a1.075 1.075 0 01-2.147 0c0-.591.482-1.073 1.073-1.073z" fill="#E63619"/></g><defs><clipPath id="clip0_165_968"><path fill="#fff" d="M0 0h44v44H0z"/></clipPath></defs></svg>