<svg width="80" height="65" fill="none" xmlns="http://www.w3.org/2000/svg"><path d="M79.675 15.425C78.575 4.713 71.442 2.46 65.162 1.431 62.008.9 56.395.433 52.775.3 49.622.1 42.215 0 39.992 0c-2.19 0-9.634.1-12.784.3-3.586.133-9.233.599-12.387 1.131C8.545 2.493 1.401 4.741.308 15.425c-.267 2.92-.333 6.734-.3 10.812.1 6.76.667 11.338 1 14.523.233 2.187 1.127 8.721 2.29 12.104 1.593 4.643 3.053 6.001 4.747 7.396 3.123 2.52 8.236 3.315 9.3 3.515C23.122 64.807 34.812 65 39.958 65c5.147 0 16.834-.166 22.614-1.225 1.097-.2 6.21-.965 9.3-3.515 1.693-1.395 3.153-2.753 4.747-7.396 1.166-3.383 2.093-9.917 2.326-12.104.334-3.185.93-7.762.997-14.523.133-4.078.033-7.892-.267-10.812zM75.755 33.4c-.633 8.555-1.393 13.662-2.49 17.376-.966 3.25-2.123 5.403-3.883 6.964-2.89 2.62-6.877 3.182-9.2 3.515-5.047.766-13.517.999-20.19.999-6.674 0-15.144-.267-20.19-.999-2.324-.333-6.31-.895-9.2-3.515-1.727-1.561-2.92-3.748-3.85-6.967-1.097-3.678-1.86-8.821-2.49-17.376-.367-5.136-.3-13.495.266-17.975.86-6.694 4.183-10.046 11.29-11.304 3.32-.6 7.8-1.032 12.02-1.232 3.387-.233 9-.333 12.12-.3 3.12-.033 8.734.1 12.12.3 4.25.2 8.7.632 12.02 1.232 7.14 1.258 10.464 4.643 11.294 11.307.663 4.477.76 12.836.363 17.975zM58.42 5.472c-1.827 8.196-2.557 11.944-4.054 17.876-1.427 5.708-2.557 10.978-4.45 13.53-1.957 2.587-4.55 3.153-6.31 3.35-.93.1-1.593.133-3.553.166-1.987 0-2.654-.066-3.584-.166-1.76-.2-4.383-.763-6.306-3.35-1.927-2.552-3.024-7.822-4.45-13.527-1.567-5.902-2.26-9.687-4.12-17.875 0 0-1.827.066-2.657.133a33.7 33.7 0 00-2.89.3C17.188 23.79 18.35 42.786 19.798 59.6a73.39 73.39 0 007.967.562c1.1-4.214 2.493-10.052 4.023-12.539 1.26-2.024 3.22-2.254 4.317-2.387a29.951 29.951 0 013.883-.266c.667-.033 2.124 0 3.884.266 1.1.167 3.056.366 4.316 2.387 1.567 2.487 2.924 8.322 4.02 12.536 0 0 1.194-.033 3.884-.166a38.232 38.232 0 004.087-.4c1.526-17.942 2.616-35.71 3.753-53.686a33.838 33.838 0 00-2.89-.3c-.767-.066-2.623-.136-2.623-.136z" fill="#777" opacity=".2"/></svg>