<svg width="80" height="80" fill="none" xmlns="http://www.w3.org/2000/svg"><g opacity=".2" clip-path="url(#clip0_110_9)"><path d="M40 0c22.077 0 40 17.923 40 40S62.077 80 40 80 0 62.077 0 40 17.923 0 40 0zM10.817 58.463A34.523 34.523 0 0040 74.533c12.27 0 23.057-6.413 29.183-16.07L40 47.343l-29.183 11.12zM46.36 36.327l24.223 19.716A34.351 34.351 0 0074.533 40c0-18.59-14.723-33.77-33.133-34.507l4.96 30.834zM38.6 5.493C20.19 6.23 5.467 21.41 5.467 40c0 5.79 1.426 11.247 3.95 16.043L33.64 36.327 38.6 5.493z" fill="#777"/></g><defs><clipPath id="clip0_110_9"><path fill="#fff" d="M0 0h80v80H0z"/></clipPath></defs></svg>