<svg width="80" height="80" fill="none" xmlns="http://www.w3.org/2000/svg"><g opacity=".2" clip-path="url(#clip0_111_17)"><path d="M70.742 69.757c-6.772 7.488-20.315 9.897-30.798 9.832-10.483 0-24.027-2.344-30.799-9.832C2.113 62.138-.556 48.66.095 36.289c.716-13.153 5.209-22.79 11.33-28.064C18.065 2.56 30.437.346 40.009.412 49.58.346 61.952 2.56 68.593 8.225c6.12 5.274 10.613 14.91 11.33 28.063.586 12.307-2.149 25.785-9.18 33.469zM37.665 32.512h4.558l-.065-28.78c-1.368-.065-1.628-.065-2.214-.065-.586 0-.912 0-2.214.065-.065 0-.065 28.78-.065 28.78zm-17.646 40.24c.391-6.772 1.758-22.334 2.54-28.585 1.237-7.618 2.474-10.027 3.906-14.26 1.173-3.45 7.228-18.947 10.158-26.175 0 0-7.553.13-13.869 2.344-4.558 1.563-9.05 4.558-12.11 9.05C3.48 25.415 4.978 43.452 5.368 48.4c1.107 12.632 6.186 20.316 14.65 24.353zm38.938.39c-1.954-5.209-11.33-27.607-16.409-36.332h-5.274C32.13 45.535 22.82 67.933 20.866 73.142c5.795 2.475 13.087 3.06 19.013 3.126 5.99-.065 13.218-.586 19.078-3.126zm10.222-58.015c-3.06-4.428-7.553-7.488-12.11-9.05-6.316-2.215-13.87-2.345-13.87-2.345 2.93 7.228 8.986 22.725 10.158 26.176 1.433 4.232 2.67 6.576 3.907 14.26.781 6.25 2.149 21.812 2.54 28.584 8.464-4.102 13.543-11.72 14.65-24.417.39-4.884 1.888-22.92-5.275-33.208z" fill="#777"/></g><defs><clipPath id="clip0_111_17"><path fill="#fff" d="M0 0h80v80H0z"/></clipPath></defs></svg>