<svg width="80" height="80" fill="none" xmlns="http://www.w3.org/2000/svg"><g opacity=".2" clip-path="url(#clip0_110_2)"><path d="M40 0C17.91 0 0 17.91 0 40s17.91 40 40 40 40-17.91 40-40S62.09 0 40 0zm0 2.6c20.653 0 37.397 16.743 37.397 37.4 0 20.653-16.74 37.397-37.397 37.397S2.603 60.653 2.603 40 19.347 2.6 40 2.6zm-2.26 2.1c-1.1.047-2.2.14-3.307.26l-.356 9.813a33.16 33.16 0 012.366-.313l.234-6.627-.044-.456.144.433 2.213 4.963h2.02l2.213-4.96.134-.436-.034.456.234 6.627c.773.073 1.576.18 2.366.313L45.56 4.96a49.151 49.151 0 00-3.307-.26l-2.176 5.417-.077.4-.077-.4L37.74 4.7zm22.32 6.08l-5.143 8.093c.65.5 1.506 1.237 2.056 1.74l4.844-2.513.306-.23-.23.313-2.506 4.844a34.54 34.54 0 011.766 2.1l8.1-5.147a53.732 53.732 0 00-1.533-1.893l-5.13 3.38-.35.306.26-.383 2.267-4.52-1.6-1.6-4.52 2.267-.384.26.304-.354 3.393-5.13c-.6-.506-1.17-.97-1.9-1.533zm-41.727 1.837c-1.2.123-2.126.943-4.643 3.75a63.218 63.218 0 00-2.523 3.046l6.913 6.557c2.29-2.533 3.22-3.473 5.027-5.377 1.276-1.35 2-2.9.72-4.39-.694-.806-1.86-.983-2.834-.583l-.093.033.033-.086a2.334 2.334 0 00-.81-2.447 2.413 2.413 0 00-.845-.43 2.415 2.415 0 00-.945-.073zm.02 2.05c.454-.124.924.2 1.027.666.107.467-.187.907-.513 1.274-.734.833-3.437 3.66-3.437 3.66l-1.34-1.277c1.39-1.7 2.87-3.247 3.54-3.86a1.83 1.83 0 01.723-.463zM40 16.277A23.713 23.713 0 0016.4 37.57v.007a23.74 23.74 0 0028.387 25.656 23.706 23.706 0 0011.979-39.998A23.74 23.74 0 0040 16.283v-.006zm-18.457.806c.157 0 .32.044.467.144a.82.82 0 01.353.866c-.086.397-.416.77-.683 1.06l-3.483 3.734-1.4-1.334s2.623-2.773 3.483-3.663c.34-.353.56-.567.793-.683.145-.075.308-.117.47-.124zM40 19.393A20.585 20.585 0 0160.607 40H40v20.607A20.585 20.585 0 0119.393 40H40V19.393z" fill="#777"/></g><defs><clipPath id="clip0_110_2"><path fill="#fff" d="M0 0h80v80H0z"/></clipPath></defs></svg>