<svg width="80" height="52" fill="none" xmlns="http://www.w3.org/2000/svg"><g opacity=".2" clip-path="url(#clip0_111_27)"><path d="M40 .36C18.115.36.37 11.838.37 25.994.37 40.156 18.115 51.64 40 51.64s39.63-11.48 39.63-25.646S61.885.359 40 .359zm0 40.275c-3.255 0-5.911-6.411-6.078-14.479a69.648 69.648 0 0012.156 0c-.167 8.063-2.823 14.48-6.078 14.48zM34.323 19.75C35.208 14.047 37.417 10 40 10c2.583 0 4.792 4.047 5.677 9.75-1.818.162-3.713.25-5.677.25a63.96 63.96 0 01-5.677-.25zM40 4.068c-4.25 0-7.875 6.364-9.213 15.25-8.058-1.256-13.683-4.12-13.683-7.448 0-4.49 10.25-8.13 22.896-8.13s22.896 3.64 22.896 8.13c0 3.328-5.625 6.193-13.682 7.448C47.875 10.432 44.25 4.068 40 4.068zM6.052 25.036c0-4.343 1.672-8.421 4.583-11.921a5.907 5.907 0 00-.052.744c0 5.474 8.209 10.141 19.662 11.86-.01.396-.01.797-.01 1.198 0 10.203 2.859 18.843 6.812 21.776-17.37-1.047-30.995-11.24-30.995-23.656zm36.901 23.657c3.953-2.933 6.813-11.573 6.813-21.776 0-.407-.006-.802-.01-1.198 11.447-1.719 19.66-6.38 19.66-11.86 0-.25-.02-.5-.051-.744 2.911 3.51 4.583 7.578 4.583 11.921 0 12.417-13.625 22.61-30.995 23.657z" fill="#777"/></g><defs><clipPath id="clip0_111_27"><path fill="#fff" d="M0 0h80v52H0z"/></clipPath></defs></svg>