<svg width="16" height="16" fill="none" xmlns="http://www.w3.org/2000/svg"><g clip-path="url(#clip0_188_212)"><path d="M14.333 1.333H12V0h-.667v1.333H4.667V0H4v1.333H1.667C.747 1.333 0 2.081 0 3v13h16V3c0-.919-.747-1.667-1.667-1.667zM1.667 2h12.666c.552 0 1 .449 1 1v2.333H.667V3c0-.551.448-1 1-1zm-1 13.333V6h14.666v9.333H.667zm2.666-6.666h9.334v.666H3.333v-.666zm0 3.333H8v.667H3.333V12z" fill="#E63619"/></g><defs><clipPath id="clip0_188_212"><path fill="#fff" d="M0 0h16v16H0z"/></clipPath></defs></svg>