<svg width="16" height="16" fill="none" xmlns="http://www.w3.org/2000/svg"><g clip-path="url(#clip0_188_216)"><path d="M8.667 6.667a.667.667 0 11-1.334 0 .667.667 0 011.334 0zM11.333 6a.667.667 0 100 1.334.667.667 0 000-1.334zM4.667 6a.667.667 0 100 1.334.667.667 0 000-1.334zM16 1.667v11.666h-4.688L8.655 15.53a.978.978 0 01-.652.245c-.237 0-.477-.084-.667-.252l-2.599-2.19H0V1.667C0 .748.747 0 1.667 0h12.666C15.253 0 16 .748 16 1.667zm-.667 0a1 1 0 00-1-1H1.667a1 1 0 00-1 1v11H4.98l2.792 2.351a.335.335 0 00.449.005l2.85-2.357h4.262v-11z" fill="#E63619"/></g><defs><clipPath id="clip0_188_216"><path fill="#fff" d="M0 0h16v16H0z"/></clipPath></defs></svg>