<svg width="20" height="20" fill="none" xmlns="http://www.w3.org/2000/svg"><g clip-path="url(#clip0_61_900)" fill="#E63619"><path d="M19.414 2.344h-3.028A2.935 2.935 0 0013.516 0a2.935 2.935 0 00-2.871 2.344H.585a.586.586 0 000 1.172h10.06a2.935 2.935 0 002.87 2.343 2.935 2.935 0 002.871-2.343h3.028a.586.586 0 000-1.172zm-5.898 2.344a1.76 1.76 0 01-1.758-1.758 1.76 1.76 0 011.758-1.758c.969 0 1.757.788 1.757 1.758a1.76 1.76 0 01-1.757 1.757zm5.898 4.726H9.355a2.935 2.935 0 00-2.87-2.344 2.935 2.935 0 00-2.871 2.344H.586a.586.586 0 000 1.172h3.028a2.935 2.935 0 002.87 2.344 2.935 2.935 0 002.871-2.344h10.06a.586.586 0 100-1.172zm-12.93 2.344A1.76 1.76 0 014.727 10a1.76 1.76 0 011.757-1.758c.97 0 1.758.789 1.758 1.758a1.76 1.76 0 01-1.758 1.758zm12.93 4.726h-3.028a2.935 2.935 0 00-2.87-2.343 2.935 2.935 0 00-2.871 2.343H.585a.586.586 0 100 1.172h10.06A2.935 2.935 0 0013.515 20a2.935 2.935 0 002.871-2.344h3.028a.586.586 0 100-1.172zm-5.898 2.344a1.76 1.76 0 01-1.758-1.757v-.001a1.76 1.76 0 011.758-1.758c.969 0 1.757.79 1.757 1.758a1.76 1.76 0 01-1.757 1.758z"/></g><defs><clipPath id="clip0_61_900"><path fill="#fff" d="M0 0h20v20H0z"/></clipPath></defs></svg>