<svg width="18" height="14" fill="none" xmlns="http://www.w3.org/2000/svg"><path d="M17.69 12.5H.31a.313.313 0 01-.31-.316V.816C0 .64.139.5.31.5h17.38c.171 0 .31.141.31.316v11.368a.313.313 0 01-.31.316z" fill="#F5F5F5"/><path d="M18 1.5H0V.842C0 .653.139.5.31.5h17.38c.171 0 .31.153.31.342V1.5zm0 3H0v1h18v-1zm0-2H0v1h18v-1zm0 5H.31C.14 7.5 0 7.347 0 7.158V6.5h18v1zm0 3H0v1h18v-1zm-.31 3H.31c-.171 0-.31-.153-.31-.342V12.5h18v.658c0 .189-.139.342-.31.342zm.31-5H0v1h18v-1z" fill="#FF4B55"/><path d="M8.667.5H.333A.338.338 0 000 .842v6.316c0 .189.15.342.333.342h8.334A.338.338 0 009 7.158V.842A.338.338 0 008.667.5z" fill="#41479B"/><path d="M1.54 1.53l.1.315.318.003c.04 0 .058.055.025.08l-.255.197.095.317c.013.04-.032.074-.065.05L1.5 2.298l-.258.192c-.033.025-.078-.008-.065-.05l.095-.316-.255-.197c-.033-.025-.016-.08.025-.08l.317-.003.1-.314a.042.042 0 01.081 0z" fill="#F5F5F5"/><path d="M1.54 2.53l.1.315.318.003c.04 0 .058.055.025.08l-.255.197.095.317c.013.04-.032.074-.065.05L1.5 3.298l-.258.192c-.033.025-.078-.008-.065-.05l.095-.316-.255-.197c-.033-.025-.016-.08.025-.08l.317-.003.1-.314a.042.042 0 01.081 0z" fill="#F5F5F5"/><path d="M1.54 3.53l.1.315.318.003c.04 0 .058.055.025.08l-.255.197.095.317c.013.04-.032.074-.065.05L1.5 4.298l-.258.192c-.033.025-.078-.008-.065-.05l.095-.316-.255-.197c-.033-.025-.016-.08.025-.08l.317-.003.1-.314a.042.042 0 01.081 0z" fill="#F5F5F5"/><path d="M1.54 4.53l.1.315.318.003c.04 0 .058.055.025.08l-.255.197.095.317c.013.04-.032.074-.065.05L1.5 5.298l-.258.192c-.033.025-.078-.008-.065-.05l.095-.316-.255-.197c-.033-.025-.016-.08.025-.08l.317-.003.1-.314a.042.042 0 01.081 0z" fill="#F5F5F5"/><path d="M1.54 5.53l.1.315.318.003c.04 0 .058.055.025.08l-.255.197.095.317c.013.04-.032.074-.065.05L1.5 6.298l-.258.192c-.033.025-.078-.008-.065-.05l.095-.316-.255-.197c-.033-.025-.016-.08.025-.08l.317-.003.1-.314a.042.042 0 01.081 0zm0-4l.1.315.318.003c.04 0 .058.055.025.08l-.255.197.095.317c.013.04-.032.074-.065.05L1.5 2.298l-.258.192c-.033.025-.078-.008-.065-.05l.095-.316-.255-.197c-.033-.025-.016-.08.025-.08l.317-.003.1-.314a.042.042 0 01.081 0z" fill="#F5F5F5"/><path d="M1.54 2.53l.1.315.318.003c.04 0 .058.055.025.08l-.255.197.095.317c.013.04-.032.074-.065.05L1.5 3.298l-.258.192c-.033.025-.078-.008-.065-.05l.095-.316-.255-.197c-.033-.025-.016-.08.025-.08l.317-.003.1-.314a.042.042 0 01.081 0z" fill="#F5F5F5"/><path d="M1.54 3.53l.1.315.318.003c.04 0 .058.055.025.08l-.255.197.095.317c.013.04-.032.074-.065.05L1.5 4.298l-.258.192c-.033.025-.078-.008-.065-.05l.095-.316-.255-.197c-.033-.025-.016-.08.025-.08l.317-.003.1-.314a.042.042 0 01.081 0z" fill="#F5F5F5"/><path d="M1.54 4.53l.1.315.318.003c.04 0 .058.055.025.08l-.255.197.095.317c.013.04-.032.074-.065.05L1.5 5.298l-.258.192c-.033.025-.078-.008-.065-.05l.095-.316-.255-.197c-.033-.025-.016-.08.025-.08l.317-.003.1-.314a.042.042 0 01.081 0zm1-3l.1.315.318.003c.04 0 .058.055.025.08l-.255.197.095.317c.013.04-.032.074-.065.05L2.5 2.298l-.258.192c-.033.025-.078-.008-.065-.05l.095-.316-.255-.197c-.033-.025-.016-.08.025-.08l.317-.003.1-.314a.042.042 0 01.081 0z" fill="#F5F5F5"/><path d="M2.54 2.53l.1.315.318.003c.04 0 .058.055.025.08l-.255.197.095.317c.013.04-.032.074-.065.05L2.5 3.298l-.258.192c-.033.025-.078-.008-.065-.05l.095-.316-.255-.197c-.033-.025-.016-.08.025-.08l.317-.003.1-.314a.042.042 0 01.081 0z" fill="#F5F5F5"/><path d="M2.54 3.53l.1.315.318.003c.04 0 .058.055.025.08l-.255.197.095.317c.013.04-.032.074-.065.05L2.5 4.298l-.258.192c-.033.025-.078-.008-.065-.05l.095-.316-.255-.197c-.033-.025-.016-.08.025-.08l.317-.003.1-.314a.042.042 0 01.081 0z" fill="#F5F5F5"/><path d="M2.54 4.53l.1.315.318.003c.04 0 .058.055.025.08l-.255.197.095.317c.013.04-.032.074-.065.05L2.5 5.298l-.258.192c-.033.025-.078-.008-.065-.05l.095-.316-.255-.197c-.033-.025-.016-.08.025-.08l.317-.003.1-.314a.042.042 0 01.081 0z" fill="#F5F5F5"/><path d="M2.54 5.53l.1.315.318.003c.04 0 .058.055.025.08l-.255.197.095.317c.013.04-.032.074-.065.05L2.5 6.298l-.258.192c-.033.025-.078-.008-.065-.05l.095-.316-.255-.197c-.033-.025-.016-.08.025-.08l.317-.003.1-.314a.042.042 0 01.081 0zm1-4l.1.315.318.003c.04 0 .058.055.025.08l-.255.197.095.317c.013.04-.032.074-.065.05L3.5 2.298l-.258.192c-.033.025-.078-.008-.065-.05l.095-.316-.255-.197c-.033-.025-.016-.08.025-.08l.317-.003.1-.314a.042.042 0 01.081 0z" fill="#F5F5F5"/><path d="M3.54 2.53l.1.315.318.003c.04 0 .058.055.025.08l-.255.197.095.317c.013.04-.032.074-.065.05L3.5 3.298l-.258.192c-.033.025-.078-.008-.065-.05l.095-.316-.255-.197c-.033-.025-.016-.08.025-.08l.317-.003.1-.314a.042.042 0 01.081 0z" fill="#F5F5F5"/><path d="M3.54 3.53l.1.315.318.003c.04 0 .058.055.025.08l-.255.197.095.317c.013.04-.032.074-.065.05L3.5 4.298l-.258.192c-.033.025-.078-.008-.065-.05l.095-.316-.255-.197c-.033-.025-.016-.08.025-.08l.317-.003.1-.314a.042.042 0 01.081 0z" fill="#F5F5F5"/><path d="M3.54 4.53l.1.315.318.003c.04 0 .058.055.025.08l-.255.197.095.317c.013.04-.032.074-.065.05L3.5 5.298l-.258.192c-.033.025-.078-.008-.065-.05l.095-.316-.255-.197c-.033-.025-.016-.08.025-.08l.317-.003.1-.314a.042.042 0 01.081 0zm1-3l.1.315.318.003c.04 0 .058.055.025.08l-.255.197.095.317c.013.04-.032.074-.065.05L4.5 2.298l-.258.192c-.033.025-.078-.008-.065-.05l.095-.316-.255-.197c-.033-.025-.016-.08.025-.08l.317-.003.1-.314a.042.042 0 01.082 0z" fill="#F5F5F5"/><path d="M4.54 2.53l.1.315.318.003c.04 0 .058.055.025.08l-.255.197.095.317c.013.04-.032.074-.065.05L4.5 3.298l-.258.192c-.033.025-.078-.008-.065-.05l.095-.316-.255-.197c-.033-.025-.016-.08.025-.08l.317-.003.1-.314a.042.042 0 01.082 0z" fill="#F5F5F5"/><path d="M4.54 3.53l.1.315.318.003c.04 0 .058.055.025.08l-.255.197.095.317c.013.04-.032.074-.065.05L4.5 4.298l-.258.192c-.033.025-.078-.008-.065-.05l.095-.316-.255-.197c-.033-.025-.016-.08.025-.08l.317-.003.1-.314a.042.042 0 01.082 0z" fill="#F5F5F5"/><path d="M4.54 4.53l.1.315.318.003c.04 0 .058.055.025.08l-.255.197.095.317c.013.04-.032.074-.065.05L4.5 5.298l-.258.192c-.033.025-.078-.008-.065-.05l.095-.316-.255-.197c-.033-.025-.016-.08.025-.08l.317-.003.1-.314a.042.042 0 01.082 0z" fill="#F5F5F5"/><path d="M4.54 5.53l.1.315.318.003c.04 0 .058.055.025.08l-.255.197.095.317c.013.04-.032.074-.065.05L4.5 6.298l-.258.192c-.033.025-.078-.008-.065-.05l.095-.316-.255-.197c-.033-.025-.016-.08.025-.08l.317-.003.1-.314a.042.042 0 01.082 0zm1-4l.1.315.318.003c.04 0 .058.055.025.08l-.255.197.095.317c.013.04-.032.074-.065.05L5.5 2.298l-.258.192c-.033.025-.078-.008-.065-.05l.095-.316-.255-.197c-.033-.025-.016-.08.025-.08l.317-.003.1-.314a.042.042 0 01.081 0z" fill="#F5F5F5"/><path d="M5.54 2.53l.1.315.318.003c.04 0 .058.055.025.08l-.255.197.095.317c.013.04-.032.074-.065.05L5.5 3.298l-.258.192c-.033.025-.078-.008-.065-.05l.095-.316-.255-.197c-.033-.025-.016-.08.025-.08l.317-.003.1-.314a.042.042 0 01.081 0z" fill="#F5F5F5"/><path d="M5.54 3.53l.1.315.318.003c.04 0 .058.055.025.08l-.255.197.095.317c.013.04-.032.074-.065.05L5.5 4.298l-.258.192c-.033.025-.078-.008-.065-.05l.095-.316-.255-.197c-.033-.025-.016-.08.025-.08l.317-.003.1-.314a.042.042 0 01.081 0z" fill="#F5F5F5"/><path d="M5.54 4.53l.1.315.318.003c.04 0 .058.055.025.08l-.255.197.095.317c.013.04-.032.074-.065.05L5.5 5.298l-.258.192c-.033.025-.078-.008-.065-.05l.095-.316-.255-.197c-.033-.025-.016-.08.025-.08l.317-.003.1-.314a.042.042 0 01.081 0zm1-3l.1.315.318.003c.04 0 .058.055.025.08l-.255.197.095.317c.013.04-.032.074-.065.05L6.5 2.298l-.258.192c-.033.025-.078-.008-.065-.05l.095-.316-.255-.197c-.033-.025-.016-.08.025-.08l.317-.003.1-.314a.042.042 0 01.081 0z" fill="#F5F5F5"/><path d="M6.54 2.53l.1.315.318.003c.04 0 .058.055.025.08l-.255.197.095.317c.013.04-.032.074-.065.05L6.5 3.298l-.258.192c-.033.025-.078-.008-.065-.05l.095-.316-.255-.197c-.033-.025-.016-.08.025-.08l.317-.003.1-.314a.042.042 0 01.081 0z" fill="#F5F5F5"/><path d="M6.54 3.53l.1.315.318.003c.04 0 .058.055.025.08l-.255.197.095.317c.013.04-.032.074-.065.05L6.5 4.298l-.258.192c-.033.025-.078-.008-.065-.05l.095-.316-.255-.197c-.033-.025-.016-.08.025-.08l.317-.003.1-.314a.042.042 0 01.081 0z" fill="#F5F5F5"/><path d="M6.54 4.53l.1.315.318.003c.04 0 .058.055.025.08l-.255.197.095.317c.013.04-.032.074-.065.05L6.5 5.298l-.258.192c-.033.025-.078-.008-.065-.05l.095-.316-.255-.197c-.033-.025-.016-.08.025-.08l.317-.003.1-.314a.042.042 0 01.081 0z" fill="#F5F5F5"/><path d="M6.54 5.53l.1.315.318.003c.04 0 .058.055.025.08l-.255.197.095.317c.013.04-.032.074-.065.05L6.5 6.298l-.258.192c-.033.025-.078-.008-.065-.05l.095-.316-.255-.197c-.033-.025-.016-.08.025-.08l.317-.003.1-.314a.042.042 0 01.081 0zm0-4l.1.315.318.003c.04 0 .058.055.025.08l-.255.197.095.317c.013.04-.032.074-.065.05L6.5 2.298l-.258.192c-.033.025-.078-.008-.065-.05l.095-.316-.255-.197c-.033-.025-.016-.08.025-.08l.317-.003.1-.314a.042.042 0 01.081 0z" fill="#F5F5F5"/><path d="M6.54 2.53l.1.315.318.003c.04 0 .058.055.025.08l-.255.197.095.317c.013.04-.032.074-.065.05L6.5 3.298l-.258.192c-.033.025-.078-.008-.065-.05l.095-.316-.255-.197c-.033-.025-.016-.08.025-.08l.317-.003.1-.314a.042.042 0 01.081 0z" fill="#F5F5F5"/><path d="M6.54 3.53l.1.315.318.003c.04 0 .058.055.025.08l-.255.197.095.317c.013.04-.032.074-.065.05L6.5 4.298l-.258.192c-.033.025-.078-.008-.065-.05l.095-.316-.255-.197c-.033-.025-.016-.08.025-.08l.317-.003.1-.314a.042.042 0 01.081 0z" fill="#F5F5F5"/><path d="M6.54 4.53l.1.315.318.003c.04 0 .058.055.025.08l-.255.197.095.317c.013.04-.032.074-.065.05L6.5 5.298l-.258.192c-.033.025-.078-.008-.065-.05l.095-.316-.255-.197c-.033-.025-.016-.08.025-.08l.317-.003.1-.314a.042.042 0 01.081 0zm1-3l.1.315.318.003c.04 0 .058.055.025.08l-.255.197.095.317c.013.04-.032.074-.065.05L7.5 2.298l-.258.192c-.033.025-.078-.008-.065-.05l.095-.316-.255-.197c-.033-.025-.016-.08.025-.08l.317-.003.1-.314a.042.042 0 01.081 0z" fill="#F5F5F5"/><path d="M7.54 2.53l.1.315.318.003c.04 0 .058.055.025.08l-.255.197.095.317c.013.04-.032.074-.065.05L7.5 3.298l-.258.192c-.033.025-.078-.008-.065-.05l.095-.316-.255-.197c-.033-.025-.016-.08.025-.08l.317-.003.1-.314a.042.042 0 01.081 0z" fill="#F5F5F5"/><path d="M7.54 3.53l.1.315.318.003c.04 0 .058.055.025.08l-.255.197.095.317c.013.04-.032.074-.065.05L7.5 4.298l-.258.192c-.033.025-.078-.008-.065-.05l.095-.316-.255-.197c-.033-.025-.016-.08.025-.08l.317-.003.1-.314a.042.042 0 01.081 0z" fill="#F5F5F5"/><path d="M7.54 4.53l.1.315.318.003c.04 0 .058.055.025.08l-.255.197.095.317c.013.04-.032.074-.065.05L7.5 5.298l-.258.192c-.033.025-.078-.008-.065-.05l.095-.316-.255-.197c-.033-.025-.016-.08.025-.08l.317-.003.1-.314a.042.042 0 01.081 0z" fill="#F5F5F5"/><path d="M7.54 5.53l.1.315.318.003c.04 0 .058.055.025.08l-.255.197.095.317c.013.04-.032.074-.065.05L7.5 6.298l-.258.192c-.033.025-.078-.008-.065-.05l.095-.316-.255-.197c-.033-.025-.016-.08.025-.08l.317-.003.1-.314a.042.042 0 01.081 0z" fill="#F5F5F5"/></svg>