<svg width="20" height="20" fill="none" xmlns="http://www.w3.org/2000/svg"><path d="M17.993 3.24l-.999-1a.399.399 0 10-.564.566l.881.883v2.574c0 1.064.84 1.928 1.89 1.978v8.257c0 .405-.33.735-.734.735a.735.735 0 01-.734-.735v-1.194a1.57 1.57 0 00-1.568-1.57h-.76V1.6A1.6 1.6 0 0013.806 0H3.426a1.6 1.6 0 00-1.598 1.6v17.6H.4a.4.4 0 000 .8h16.434a.4.4 0 000-.8h-1.429v-4.667h.761c.425 0 .77.346.77.771v1.194c0 .846.687 1.535 1.532 1.535.846 0 1.533-.689 1.533-1.535V5.417a.4.4 0 00-.117-.283l-1.89-1.893zM2.627 19.2V1.6a.8.8 0 01.799-.8h10.381a.8.8 0 01.799.8v17.6H2.627zM18.11 6.263V4.49l1.09 1.092v1.859a1.184 1.184 0 01-1.091-1.178z" fill="#E63619"/><path d="M13.408 1.6H3.825a.4.4 0 00-.4.4v6.833a.4.4 0 00.4.4h9.583a.4.4 0 00.4-.4V2a.4.4 0 00-.4-.4zm-.4 6.833H4.224V2.4h8.784v6.033zm.134 3.667a.4.4 0 00-.4.4v3.267a.4.4 0 10.799 0V12.5a.4.4 0 00-.4-.4z" fill="#E63619"/></svg>