<svg width="18" height="18" fill="none" xmlns="http://www.w3.org/2000/svg"><g clip-path="url(#clip0_199_300)"><path d="M9 1.622c2.403 0 2.688.009 3.638.053 2.439.11 3.577 1.268 3.689 3.689.043.949.051 1.233.051 3.636 0 2.405-.009 2.69-.051 3.638-.112 2.418-1.248 3.577-3.69 3.689-.949.043-1.233.052-3.637.052-2.403 0-2.688-.009-3.636-.052-2.446-.112-3.58-1.275-3.69-3.69-.043-.949-.052-1.233-.052-3.637 0-2.403.009-2.687.052-3.636.112-2.421 1.248-3.58 3.69-3.69.949-.043 1.233-.052 3.636-.052zM9 0C6.556 0 6.25.01 5.29.054 2.02.204.203 2.018.054 5.289.009 6.25 0 6.556 0 9s.01 2.751.054 3.71c.15 3.27 1.964 5.086 5.235 5.236C6.25 17.989 6.556 18 9 18s2.751-.01 3.71-.054c3.267-.15 5.087-1.964 5.235-5.235C17.99 11.75 18 11.444 18 9s-.01-2.75-.054-3.71C17.799 2.024 15.984.205 12.712.054 11.752.009 11.444 0 9 0zm0 4.378a4.621 4.621 0 100 9.243 4.621 4.621 0 000-9.243zM9 12a3 3 0 110-6 3 3 0 010 6zm4.804-8.883a1.08 1.08 0 100 2.16 1.08 1.08 0 000-2.16z" fill="#D9D9D9" fill-opacity=".8"/></g><defs><clipPath id="clip0_199_300"><path fill="#fff" d="M0 0h18v18H0z"/></clipPath></defs></svg>