<svg width="49" height="60" fill="none" xmlns="http://www.w3.org/2000/svg"><path d="M40.96 33.375c-1.653-8.387 6.24-13.306 6.24-13.306s-3.075-4.488-8.243-5.642c-5.166-1.157-7.751.288-10.332 1.373-2.583 1.086-3.872 1.086-3.872 1.086-3.727 0-6.452-3.98-13.554-2.168C6.307 15.963 1.156 21.66.225 28.458c-.93 6.802 1.078 15.48 4.95 22.207 3.872 6.73 7.816 9.26 10.615 9.333 2.8.07 5.594-2.023 8.963-2.532 3.372-.505 5.447 1.232 8.754 2.17 3.295.937 4.45.069 8.244-3.187C45.556 53.194 49 43.858 49 43.858s-6.388-2.09-8.04-10.483z" fill="#222"/><path d="M34.308 9.688C38.065 5.886 36.792 0 36.792 0s-5.275.92-8.809 4.572C24.451 8.227 25.036 14 25.036 14s5.516-.512 9.272-4.312z" fill="#222"/></svg>