<svg width="20" height="14" fill="none" xmlns="http://www.w3.org/2000/svg"><path fill-rule="evenodd" clip-rule="evenodd" d="M18 13h-2v.56c0 .243.194.44.431.44h1.138a.436.436 0 00.431-.44V13zm1.617-2H.383c-.211 0-.383.225-.383.5s.172.5.383.5h19.234c.211 0 .383-.225.383-.5s-.172-.5-.383-.5zM3 13H1v.56c0 .243.193.44.431.44H2.57a.436.436 0 00.43-.44V13zm.488-5h-.976A.507.507 0 002 8.5c0 .276.23.5.512.5h.976A.507.507 0 004 8.5c0-.276-.23-.5-.512-.5zm8.645 0H7.867a.076.076 0 00-.056.023l-.798.893c-.032.036 0 .084.056.084h5.862c.056 0 .088-.049.056-.084l-.798-.893A.075.075 0 0012.133 8zm5.355 0h-.976a.507.507 0 00-.512.5c0 .276.23.5.512.5h.976A.507.507 0 0018 8.5c0-.276-.23-.5-.512-.5z" fill="#777"/><path fill-rule="evenodd" clip-rule="evenodd" d="M18.317 6H2.683C1.755 6 1 6.779 1 7.736V11h19V7.736C20 6.779 19.245 6 18.317 6zM8.243 7.297h4.513c.184 0 .357.093.462.249l.844 1.243c.26.384-.008.913-.462.913H7.4c-.455 0-.723-.53-.462-.913l.844-1.244a.558.558 0 01.461-.248zM15.866 8.5c0-.553.436-1.003.972-1.003h.92c.535 0 .971.45.971 1.003 0 .552-.436 1.002-.972 1.002h-.919c-.536 0-.972-.45-.972-1.002zM4.161 7.497c.536 0 .972.45.972 1.003 0 .552-.436 1.002-.972 1.002h-.919c-.535 0-.972-.45-.972-1.002 0-.553.437-1.003.972-1.003h.92zm10.877-6.379L16.296 5H17L15.575.602A.858.858 0 0014.762 0H5.238a.858.858 0 00-.813.602L3 5h.704l1.258-3.882a.616.616 0 01.584-.432h8.908c.266 0 .5.174.584.432z" fill="#777"/><path fill-rule="evenodd" clip-rule="evenodd" d="M12.1 2.973c-.062.04-.1.12-.1.209V5h2V3.182c0-.09-.038-.17-.1-.209l-.212-.135c-.068-.043-.111-.134-.111-.233v-.41c0-.108-.067-.195-.149-.195h-.855c-.083 0-.15.087-.15.194v.411c0 .1-.043.19-.111.234l-.212.134zM8 5.38c-.214-.507-.786-.507-1 0h1z" fill="#777"/><path fill-rule="evenodd" clip-rule="evenodd" d="M9 5c-.146-.58-.775-1-1.5-1-.481 0-.94.189-1.228.506A1.152 1.152 0 006 5h.4c.138-.394.585-.681 1.1-.681.516 0 .962.287 1.1.681H9zM6.572 2c-.082 0-.149.11-.149.245v.523c0 .125-.043.24-.111.295l-.212.171c-.062.05-.1.151-.1.265v.5c.597-.724 1.403-.724 2 .001v-.501c0-.112-.04-.216-.1-.265l-.212-.171c-.068-.055-.111-.17-.111-.295v-.523c0-.135-.067-.245-.15-.245h-.855z" fill="#777"/><path fill-rule="evenodd" clip-rule="evenodd" d="M8.471 2.549l.12.06c.238.12.39.374.39.647l.001.896c.167.256.277.544.322.848h1.731V3.257c0-.273.153-.527.39-.647l.12-.06v-.24c0-.376.297-.683.661-.683h1.032c.364 0 .659.307.659.683v.24l.12.06c.238.12.391.374.391.647V5H16l-1.249-3.89a.156.156 0 00-.148-.11H10.24v.553h.451c.133 0 .24.112.24.249a.244.244 0 01-.24.248H9.31a.244.244 0 01-.24-.248c0-.137.107-.249.24-.249h.45V1H5.398a.157.157 0 00-.148.11L4 5h1.285c.046-.304.156-.593.324-.85v-.894c0-.276.149-.524.39-.646l.12-.061v-.24c0-.376.297-.682.66-.682h1.032c.364 0 .66.306.66.682v.24z" fill="#777"/></svg>