<svg width="14" height="14" fill="none" xmlns="http://www.w3.org/2000/svg"><g clip-path="url(#clip0_327_192)"><path d="M14 2.66a5.968 5.968 0 01-1.654.452 2.854 2.854 0 001.263-1.586 5.737 5.737 0 01-1.82.695 2.87 2.87 0 00-4.965 1.963c0 .227.02.446.067.654A8.124 8.124 0 01.975 1.836a2.874 2.874 0 00.882 3.836A2.834 2.834 0 01.56 5.318v.032c0 1.395.995 2.553 2.3 2.82a2.865 2.865 0 01-.753.094c-.184 0-.37-.01-.543-.049a2.898 2.898 0 002.681 2 5.767 5.767 0 01-3.558 1.224c-.236 0-.461-.01-.687-.04a8.08 8.08 0 004.403 1.289c5.282 0 8.169-4.376 8.169-8.168 0-.127-.004-.25-.01-.37A5.727 5.727 0 0014 2.66z" fill="#D9D9D9" fill-opacity=".8"/></g><defs><clipPath id="clip0_327_192"><path fill="#fff" d="M0 0h14v14H0z"/></clipPath></defs></svg>