<svg width="185" height="40" fill="none" xmlns="http://www.w3.org/2000/svg"><path d="M33 15h22l-3.335-5.473C49.965 6.74 46.825 5 43.464 5H33v10zm-2 .823V5h-5.16c-3.198 0-6.139 1.692-7.88 4.531L14 16a65.776 65.776 0 015.134-.177H31zM0 34h5.585A7.447 7.447 0 016 32H0v2zM36.042 0h-6.084L29 2h8l-.958-2zM31 18H18.828c-5.37 0-10.98.25-15.333 3.2C2.555 21.825 2 22.85 2 23.925v.113h2.395c.727 0 1.323.55 1.323 1.25 0 .687-.596 1.25-1.323 1.25H2V29h5.424c1.548-1.775 3.89-2.913 6.51-2.913 2.619 0 4.96 1.138 6.495 2.913H31V18zm-3.704 4.425H24.9c-.728 0-1.323-.55-1.323-1.25 0-.688.595-1.25 1.323-1.25h2.395c.727 0 1.323.563 1.323 1.25 0 .7-.596 1.25-1.323 1.25zM61 32c.234.642.372 1.309.427 2H66v-2h-5zm3-5.462h-2.882c-.723 0-1.315-.563-1.315-1.25 0-.7.592-1.25 1.316-1.25h2.868C63.895 20.7 61.039 18 57.513 18H33v11h13.368c1.527-1.775 3.869-2.913 6.474-2.913s4.934 1.138 6.46 2.913H64v-2.462zm-25.303-4.113h-2.381c-.737 0-1.316-.55-1.316-1.25 0-.688.579-1.25 1.316-1.25h2.381c.724 0 1.316.563 1.316 1.25 0 .7-.592 1.25-1.316 1.25zM13.506 29C10.476 29 8 31.463 8 34.494A5.52 5.52 0 0013.506 40C16.537 40 19 37.525 19 34.494A5.498 5.498 0 0013.506 29zm0 8.386a2.884 2.884 0 01-2.892-2.892 2.892 2.892 0 012.892-2.892 2.9 2.9 0 012.892 2.892c0 1.604-1.3 2.892-2.892 2.892z" fill="#FABC00"/><path d="M52.506 29A5.5 5.5 0 0047 34.494 5.511 5.511 0 0052.506 40C55.537 40 58 37.525 58 34.494A5.498 5.498 0 0052.506 29zm0 8.386a2.894 2.894 0 01-2.904-2.892c0-1.592 1.3-2.892 2.904-2.892a2.9 2.9 0 012.892 2.892c0 1.604-1.3 2.892-2.892 2.892zM22.397 34H44.59c.051-.691.18-1.358.41-2H22c.218.642.359 1.309.397 2z" fill="#FABC00"/><path d="M79.9 31.5V8.82h5.013v9.268L88.72 8.82h4.9l-4.2 10.248L93.817 31.5H88.72l-3.276-10.024-.532.896V31.5H79.9zm15.887 0V8.82h10.192v3.416h-5.18v5.628h3.948v3.472h-3.948v6.776h5.236V31.5H95.787zm15.38 0v-9.268L106.855 8.82h4.732l2.156 7.168 1.932-7.168h4.536l-4.228 13.412V31.5h-4.816zm10.65 0l.392-22.68h5.376l2.492 13.188 2.688-13.188h5.18l.392 22.68h-3.556l-.42-15.092-2.632 15.092h-3.164l-2.8-15.204-.336 15.204h-3.612zm26.295.336c-1.699 0-3.043-.299-4.032-.896-.99-.597-1.699-1.456-2.128-2.576-.43-1.12-.644-2.455-.644-4.004v-8.428c0-1.568.214-2.903.644-4.004.429-1.101 1.138-1.941 2.128-2.52.989-.597 2.333-.896 4.032-.896 1.717 0 3.07.299 4.06.896 1.008.579 1.726 1.419 2.156 2.52.429 1.101.644 2.436.644 4.004v8.428c0 1.55-.215 2.884-.644 4.004-.43 1.12-1.148 1.979-2.156 2.576-.99.597-2.343.896-4.06.896zm0-3.556c.522 0 .905-.13 1.148-.392.242-.261.401-.597.476-1.008.074-.41.112-.83.112-1.26V14.7a6.79 6.79 0 00-.112-1.26c-.075-.41-.234-.747-.476-1.008-.243-.261-.626-.392-1.148-.392-.486 0-.85.13-1.092.392-.243.261-.402.597-.476 1.008a6.705 6.705 0 00-.112 1.26v10.92c0 .43.028.85.084 1.26.074.41.224.747.448 1.008.242.261.625.392 1.148.392zm11.735 3.22V12.544h-3.416V8.82h11.844v3.724h-3.388V31.5h-5.04zm16.702.336c-1.699 0-3.043-.299-4.032-.896-.989-.597-1.699-1.456-2.128-2.576-.429-1.12-.644-2.455-.644-4.004v-8.428c0-1.568.215-2.903.644-4.004.429-1.101 1.139-1.941 2.128-2.52.989-.597 2.333-.896 4.032-.896 1.717 0 3.071.299 4.06.896 1.008.579 1.727 1.419 2.156 2.52.429 1.101.644 2.436.644 4.004v8.428c0 1.55-.215 2.884-.644 4.004-.429 1.12-1.148 1.979-2.156 2.576-.989.597-2.343.896-4.06.896zm0-3.556c.523 0 .905-.13 1.148-.392.243-.261.401-.597.476-1.008a7 7 0 00.112-1.26V14.7c0-.448-.037-.868-.112-1.26-.075-.41-.233-.747-.476-1.008-.243-.261-.625-.392-1.148-.392-.485 0-.849.13-1.092.392-.243.261-.401.597-.476 1.008a6.705 6.705 0 00-.112 1.26v10.92c0 .43.028.85.084 1.26.075.41.224.747.448 1.008.243.261.625.392 1.148.392z" fill="#fff"/></svg>