<svg width="96" height="96" fill="none" xmlns="http://www.w3.org/2000/svg"><path d="M30.4 28.8v3.23a6.387 6.387 0 00-2.475 12.313c.787.315 1.628.47 2.475.457v3.488a6.413 6.413 0 002.192 4.832l5.552 4.848h19.712l5.552-4.848a6.414 6.414 0 002.192-4.832V44.8a6.385 6.385 0 100-12.77V28.8H30.4z" fill="#FCD6AC"/><path d="M72.72 64.176l-8.064-2.016H31.344l-8.064 2.016A7.344 7.344 0 0017.6 71.2l9.6 23.2h41.6l9.6-23.2a7.344 7.344 0 00-5.68-7.024z" fill="#3F5C6C"/><path d="M72.528 74.272a25.6 25.6 0 00-49.056 0 27.52 27.52 0 002 20.128h8.992a2.14 2.14 0 011.056-1.904l9.296-5.36a6.3 6.3 0 006.368 0l9.28 5.36a2.05 2.05 0 011.04 1.904h9.024a27.52 27.52 0 002-20.128zM44.8 76.064a6.368 6.368 0 00-3.2 5.536l-9.264 5.36a2.033 2.033 0 01-1.936.064l-1.6-4.992v-.08a19.2 19.2 0 0113.312-18.624 2.092 2.092 0 012.688 2.016v10.72zm22.384 5.968L65.6 87.04a2.093 2.093 0 01-1.92-.08L54.4 81.6a6.368 6.368 0 00-3.2-5.536V65.36a2.116 2.116 0 012.816-1.984A19.2 19.2 0 0167.2 81.6c.003.144-.003.288-.016.432z" fill="#3B96D2"/><path d="M72.176 73.216a3.966 3.966 0 016.136-2.032A4.5 4.5 0 0180 74.813V81.6a3.21 3.21 0 013.2 3.2v4.8a4.814 4.814 0 01-4.8 4.8h-9.6a3.21 3.21 0 01-3.2-3.2v-6.4a3.21 3.21 0 013.2-3.2h4.8m-51.2 0h4.8a3.21 3.21 0 013.2 3.2v6.4a3.21 3.21 0 01-3.2 3.2h-9.6a4.814 4.814 0 01-4.8-4.8v-4.8a3.21 3.21 0 013.2-3.2v-6.787a4.499 4.499 0 011.688-3.629 3.967 3.967 0 016.136 2.032" fill="#FCD6AC"/><path d="M48 83.2a1.6 1.6 0 100-3.2 1.6 1.6 0 000 3.2z" fill="#2980B9"/><path d="M51.2 52.8h-6.4a1.6 1.6 0 010-3.2h6.4a1.6 1.6 0 010 3.2z" fill="#EF9272"/><path d="M49.6 46.4h-3.2a1.6 1.6 0 010-3.2h3.2a1.6 1.6 0 110 3.2z" fill="#F8C694"/><path d="M44.8 65.344v3.648a6.853 6.853 0 00-4.08 3.136 1.475 1.475 0 01-2.176.4 8.28 8.28 0 01-3.344-5.216v-.016a19.19 19.19 0 016.912-3.968 2.09 2.09 0 012.688 2.016zm16 1.968a8.243 8.243 0 01-3.344 5.216 1.476 1.476 0 01-2.176-.4 6.853 6.853 0 00-4.08-3.136V65.36a2.116 2.116 0 012.816-1.984 18.948 18.948 0 016.784 3.936z" fill="#EBEFF0"/><path d="M65.6 22.4c5.526-2.32 8-5.8 8-9.677C73.6 5.7 62.14 1.6 48 1.6S22.4 5.7 22.4 12.723c0 3.877 2.474 7.36 8 9.677h35.2z" fill="#EFC319"/><path d="M57.834 38.4H39.368a4.8 4.8 0 01-4-2.138L30.4 28.8h35.2l-3.473 6.947a4.8 4.8 0 01-4.292 2.653z" fill="#547580"/><path d="M32 20.8h32a1.6 1.6 0 011.6 1.6v6.4H30.4v-6.4a1.6 1.6 0 011.6-1.6z" fill="#3F5C6C"/></svg>