<svg width="96" height="96" fill="none" xmlns="http://www.w3.org/2000/svg"><path d="M51.2 1.6H6.4a4.8 4.8 0 00-4.8 4.8v83.2a4.8 4.8 0 004.8 4.8h44.8a4.8 4.8 0 004.8-4.8V6.4a4.8 4.8 0 00-4.8-4.8z" fill="#AFD2EF"/><path d="M56 8.752V89.6a4.8 4.8 0 01-4.8 4.8H9.712C.8 25.808 38.864 11.664 56 8.752z" fill="#8FB9E0"/><path d="M44.8 1.6l-4.578 4.883A4.799 4.799 0 0136.72 8H20.88a4.8 4.8 0 01-3.503-1.517L12.8 1.6h32z" fill="#547580"/><path d="M94.4 19.2v43.2a4.8 4.8 0 01-4.8 4.8H50.48L34.544 79.456a2.571 2.571 0 01-4.144-2.032V67.2h-4.8a4.8 4.8 0 01-4.8-4.8V19.2a4.8 4.8 0 014.8-4.8h64a4.8 4.8 0 014.8 4.8z" fill="#FF5364"/><path d="M80 52.8h1.6a3.2 3.2 0 003.2-3.2v-6.775a3.2 3.2 0 00-2.803-3.175L72 38.4H40a3.2 3.2 0 00-3.2 3.2v8a3.2 3.2 0 003.2 3.2h40z" fill="#EFC319"/><path d="M41.6 38.4l8.663-8.662a3.2 3.2 0 012.262-.938h8.55a3.2 3.2 0 012.263.938L72 38.4H41.6z" fill="#2FA7CB"/><path d="M52.8 28.8l2.758-5.515a1.6 1.6 0 011.43-.885H59.2a1.6 1.6 0 011.6 1.6v4.8h-8z" fill="#F19B1F"/><path d="M54.4 28.8h3.2v9.6h-3.2v-9.6z" fill="#F2D45B"/><path d="M54.4 48a1.6 1.6 0 01-1.6-1.6v-1.6a1.6 1.6 0 113.2 0v1.6a1.6 1.6 0 01-1.6 1.6zm6.4 0a1.6 1.6 0 01-1.6-1.6v-1.6a1.6 1.6 0 113.2 0v1.6a1.6 1.6 0 01-1.6 1.6zm6.4 0a1.6 1.6 0 01-1.6-1.6v-1.6a1.6 1.6 0 113.2 0v1.6a1.6 1.6 0 01-1.6 1.6z" fill="#3F5C6C"/><path d="M56 81.6v8a4.8 4.8 0 01-4.8 4.8H6.4a4.8 4.8 0 01-4.8-4.8v-8a4.8 4.8 0 004.8 4.8h44.8a4.8 4.8 0 004.8-4.8z" fill="#547580"/><path d="M46.4 57.6a4.8 4.8 0 100-9.6 4.8 4.8 0 000 9.6zm28.8 0a4.8 4.8 0 100-9.6 4.8 4.8 0 000 9.6z" fill="#3F5C6C"/></svg>