<svg width="96" height="96" fill="none" xmlns="http://www.w3.org/2000/svg"><path d="M6.4 72V4.8a3.21 3.21 0 013.2-3.2h76.8a3.21 3.21 0 013.2 3.2v68.32L6.4 72z" fill="#EBEFF0"/><path d="M94.4 76.496V84.8a3.21 3.21 0 01-3.2 3.2H6.4a4.8 4.8 0 01-4.8-4.8v-8A3.21 3.21 0 014.8 72h73.6l13.12 1.312a3.2 3.2 0 012.88 3.184z" fill="#3F5C6C"/><path d="M89.6 4.8v9.6H6.4V4.8a3.21 3.21 0 013.2-3.2h76.8a3.21 3.21 0 013.2 3.2z" fill="#3B96D2"/><path d="M20.107 21.389l1.43 3.019 3.2.48a1.067 1.067 0 01.56 1.8l-2.312 2.352.546 3.318a1.021 1.021 0 01-1.469 1.12l-2.862-1.57-2.858 1.569a1.022 1.022 0 01-1.468-1.12l.545-3.319-2.312-2.352a1.067 1.067 0 01.56-1.8l3.2-.48 1.429-3.019a.995.995 0 011.811.002zm19.2 0l1.43 3.019 3.2.48a1.067 1.067 0 01.56 1.8l-2.311 2.352.545 3.318a1.021 1.021 0 01-1.468 1.12l-2.863-1.57-2.858 1.569a1.022 1.022 0 01-1.468-1.12l.545-3.319-2.312-2.352a1.067 1.067 0 01.56-1.8l3.2-.48 1.43-3.019a.995.995 0 011.81.002zm19.2 0l1.43 3.019 3.2.48a1.067 1.067 0 01.56 1.8l-2.312 2.352.546 3.318a1.021 1.021 0 01-1.469 1.12l-2.862-1.57-2.858 1.569a1.022 1.022 0 01-1.469-1.12l.546-3.319-2.312-2.352a1.067 1.067 0 01.56-1.8l3.2-.48 1.429-3.019a.995.995 0 011.811.002zm19.2 0l1.43 3.019 3.2.48a1.067 1.067 0 01.56 1.8l-2.311 2.352.545 3.318a1.021 1.021 0 01-1.469 1.12l-2.862-1.57-2.858 1.569a1.022 1.022 0 01-1.468-1.12l.545-3.319-2.312-2.352a1.067 1.067 0 01.56-1.8l3.2-.48 1.429-3.019a.995.995 0 011.811.002z" fill="#EFC319"/><path d="M14.4 94.4a6.4 6.4 0 100-12.8 6.4 6.4 0 000 12.8zm67.2 0a6.4 6.4 0 100-12.8 6.4 6.4 0 000 12.8z" fill="#547580"/><path d="M78.4 72H11.2l2.544-8.88a3.187 3.187 0 013.072-2.32h55.968a3.187 3.187 0 013.072 2.32L78.4 72z" fill="#2FA7CB"/><path d="M24 60.8h3.2V72H24V60.8zm12.8 0H40V72h-3.2V60.8zm12.8 0h3.2V72h-3.2V60.8zm12.8 0h3.2V72h-3.2V60.8z" fill="#35495E"/><path d="M12.8 9.6a1.6 1.6 0 100-3.2 1.6 1.6 0 000 3.2z" fill="#BF3A2B"/><path d="M19.2 9.6a1.6 1.6 0 100-3.2 1.6 1.6 0 000 3.2z" fill="#F2D45B"/><path d="M25.6 9.6a1.6 1.6 0 100-3.2 1.6 1.6 0 000 3.2z" fill="#65DCB8"/><path d="M81.6 9.6h-8a1.6 1.6 0 010-3.2h8a1.6 1.6 0 010 3.2z" fill="#2980B9"/><path d="M72 80h-4.8a1.6 1.6 0 110-3.2H72a1.6 1.6 0 010 3.2zm-44.8 0h-4.8a1.6 1.6 0 110-3.2h4.8a1.6 1.6 0 010 3.2z" fill="#94A4A4"/><path d="M67.2 41.6H28.8a6.4 6.4 0 000 12.8h38.4a6.4 6.4 0 000-12.8z" fill="#4FB96F"/></svg>