<svg width="38" height="21" fill="none" xmlns="http://www.w3.org/2000/svg"><path d="M1.118 0h18.806c1.124 0 2.207.419 3.033 1.172l6.098 5.567 5.626 1.484C36.638 8.739 38 10.492 38 12.495v2.979c0 .61-.5 1.105-1.118 1.105h-1.676c0-3.357-2.752-6.079-6.147-6.079-3.395 0-6.147 2.722-6.147 6.079H1.118A1.112 1.112 0 010 15.474V7.737c0-.61.5-1.105 1.118-1.105H4.47V2.21H1.118A1.112 1.112 0 010 1.105C0 .495.5 0 1.118 0zm15.647 2.21v4.422h8.876l-4.2-3.835a2.25 2.25 0 00-1.517-.586h-3.16zm-10.06 0v4.422h7.824V2.21H6.706zM29.06 21c-2.47 0-4.47-1.98-4.47-4.421 0-2.442 2-4.421 4.47-4.421 2.469 0 4.47 1.98 4.47 4.421 0 2.442-2.001 4.421-4.47 4.421zm0-2.21c1.234 0 2.235-.99 2.235-2.211 0-1.22-1-2.21-2.235-2.21-1.235 0-2.236.99-2.236 2.21s1.001 2.21 2.236 2.21z" fill="#222"/></svg>