<svg width="37" height="38" fill="none" xmlns="http://www.w3.org/2000/svg"><path d="M13.708 17.333l-13.125 20h3.301l10.469-20h-.645zm23.072 20l-13.125-20h-.645l10.469 20h3.3zm-17.432-20V18h-1.333v-.667h-2.157l-10.466 20h12.623v-2.666h1.333v2.666h12.626l-10.467-20h-2.159zm0 15.334h-1.333v-3.334h1.333v3.334zm0-5.334h-1.333v-2.666h1.333v2.666zm0-4h-1.333v-2h1.333v2zm0-3.333h-1.333v-1.333h1.333V20zm-.666-7.057c1.658-2.09 4.667-6.289 4.667-8.276a4.666 4.666 0 10-9.334 0c0 1.989 3.008 6.187 4.667 8.276zm0-11.61a2.667 2.667 0 110 5.334 2.667 2.667 0 010-5.334z" fill="#222"/></svg>