<svg width="22" height="16" fill="none" xmlns="http://www.w3.org/2000/svg"><path d="M19.25 0H2.75C2.02 0 1.321.23.805.639.29 1.049 0 1.603 0 2.182V16h22V2.182c0-.579-.29-1.134-.805-1.543C20.678.229 19.979 0 19.25 0zM2.75 1.455h16.5c.243 0 .476.076.648.213a.661.661 0 01.269.514v.485l-7.222 5.73c-.516.408-1.216.638-1.945.638-.73 0-1.429-.23-1.945-.638l-7.222-5.73v-.485a.66.66 0 01.269-.514 1.05 1.05 0 01.648-.213zm-.917 13.09V4.728L7.76 9.425c.86.681 2.026 1.064 3.241 1.064 1.215 0 2.38-.383 3.241-1.064l5.926-4.698v9.819H1.833z" fill="#222"/></svg>