<svg width="22" height="22" fill="none" xmlns="http://www.w3.org/2000/svg"><path d="M5.053 14.642a21.286 21.286 0 007.084 5.528c1.036.49 2.421 1.07 3.965 1.169.095.004.187.008.283.008 1.035 0 1.867-.356 2.545-1.09a.069.069 0 00.017-.02c.241-.29.516-.551.803-.83.195-.186.395-.38.587-.58.886-.92.886-2.088-.009-2.98l-2.5-2.49c-.424-.44-.932-.671-1.464-.671-.533 0-1.044.232-1.481.667l-1.49 1.484a7.927 7.927 0 00-.411-.216 5.165 5.165 0 01-.458-.248c-1.356-.858-2.587-1.977-3.765-3.415-.594-.75-.994-1.38-1.273-2.023.392-.352.758-.72 1.111-1.081.125-.129.254-.257.383-.386.45-.447.69-.965.69-1.492 0-.526-.237-1.044-.69-1.492L7.74 3.25a42.679 42.679 0 01-.424-.43 22.777 22.777 0 00-.845-.833c-.428-.42-.931-.639-1.464-.639-.528 0-1.036.22-1.48.643L1.97 3.54a3.18 3.18 0 00-.952 2.039c-.08.99.104 2.043.578 3.315.728 1.968 1.826 3.796 3.457 5.748zm-3.02-8.976c.05-.552.262-1.012.661-1.41l1.548-1.541c.241-.232.507-.352.765-.352.254 0 .512.12.749.36.279.257.54.526.824.812.141.145.287.29.432.44l1.24 1.235c.258.257.39.518.39.775s-.132.518-.39.775c-.13.128-.258.26-.387.39-.387.389-.749.758-1.148 1.11l-.02.02c-.346.345-.292.672-.209.92l.013.034c.32.766.765 1.496 1.46 2.366 1.248 1.533 2.562 2.723 4.01 3.639.179.116.37.207.549.298.166.083.32.162.458.249l.045.025c.138.07.27.103.404.103.333 0 .549-.211.62-.282l1.555-1.55c.242-.24.504-.368.762-.368.316 0 .574.194.736.368l2.508 2.495c.5.498.495 1.036-.012 1.563-.175.186-.358.364-.553.55-.291.283-.595.573-.87.9-.478.514-1.048.754-1.784.754-.071 0-.146-.004-.217-.008-1.364-.087-2.633-.617-3.586-1.07a20.222 20.222 0 01-6.743-5.262c-1.551-1.861-2.595-3.593-3.286-5.45-.429-1.14-.59-2.055-.524-2.888z" fill="#fff" stroke="#fff"/></svg>