<svg width="40" height="40" fill="none" xmlns="http://www.w3.org/2000/svg"><path d="M35.63 1.85a2.22 2.22 0 00-1.574-.65h-.01a2.213 2.213 0 00-1.6.69l-2.393 2.737a3.827 3.827 0 00-2.53-1.145l-2.403-.134a2.432 2.432 0 01-1.4-.509l-1.926-1.442a3.796 3.796 0 00-4.581 0L15.286 2.84c-.43.322-.861.48-1.398.51l-2.403.133a3.795 3.795 0 00-3.51 2.945L7.426 8.77a2.433 2.433 0 01-.744 1.289l-1.754 1.647a3.796 3.796 0 00-.796 4.512l1.086 2.147c.242.48.322.932.258 1.466l-.285 2.39a3.795 3.795 0 002.29 3.967l1.81.775-3.7 7.947a.908.908 0 00.981 1.28l3.887-.68 1.982 3.412a.907.907 0 00.828.452.907.907 0 00.784-.525l3.494-7.505 1.212-.367a2.43 2.43 0 011.489 0l1.212.366 3.495 7.506a.907.907 0 00.825.526c.324 0 .622-.17.786-.453l1.982-3.411 3.887.679a.906.906 0 00.879-.343.907.907 0 00.102-.937l-3.7-7.947 1.81-.775a3.795 3.795 0 002.29-3.967l-.285-2.39a2.432 2.432 0 01.259-1.466l1.085-2.147a3.796 3.796 0 00-.795-4.512l-1.755-1.647a2.483 2.483 0 01-.548-.73c1.728-1.987 3.196-3.651 3.863-4.324a2.236 2.236 0 00-.01-3.155zM13.194 37.73l-1.873-3.224a.625.625 0 00-.648-.301l-3.674.641 3.388-7.277c.166.147.313.319.447.523l1.317 2.014a3.791 3.791 0 003.81 1.682l-2.767 5.942zm15.14-3.526a.626.626 0 00-.647.302l-1.874 3.224-2.767-5.942a3.793 3.793 0 003.81-1.682l1.318-2.014c.134-.204.28-.376.446-.523l3.388 7.277-3.674-.642zM31.47 10.97l1.754 1.647c.853.8 1.064 1.993.536 3.036l-1.086 2.148a3.71 3.71 0 00-.384 2.178l.286 2.39a2.523 2.523 0 01-1.542 2.67l-2.212.947a3.71 3.71 0 00-1.694 1.422l-1.317 2.014a2.523 2.523 0 01-2.898 1.055l-2.303-.697a3.713 3.713 0 00-2.212 0l-2.303.697a2.524 2.524 0 01-2.898-1.055l-1.317-2.014a3.709 3.709 0 00-1.695-1.422l-2.212-.947a2.523 2.523 0 01-1.541-2.67l.285-2.39a3.71 3.71 0 00-.384-2.178l-1.085-2.147a2.523 2.523 0 01.535-3.037l1.755-1.647a3.71 3.71 0 001.106-1.915l.549-2.343a2.523 2.523 0 012.362-1.982l2.402-.134a3.71 3.71 0 002.078-.756l1.927-1.442a2.523 2.523 0 013.083 0l1.927 1.442a3.71 3.71 0 002.078.756l2.403.134c.704.039 1.33.34 1.776.841l-2.726 3.12a10.181 10.181 0 00-7-2.747c-5.673 0-10.288 4.616-10.288 10.29 0 5.673 4.615 10.288 10.289 10.288 5.673 0 10.289-4.615 10.289-10.289 0-1.31-.242-2.58-.72-3.783l1.841-2.127c.157.23.34.445.556.647zm-17.603 5.618l4.463 4.463a2.22 2.22 0 001.58.655 2.22 2.22 0 001.58-.655c1.035-1.034 3.822-4.248 6.644-7.513.271.867.409 1.77.409 2.695 0 4.984-4.055 9.04-9.04 9.04-4.983 0-9.038-4.056-9.038-9.04 0-4.984 4.055-9.039 9.039-9.039 2.325 0 4.497.863 6.176 2.44l-5.804 6.642-2.848-2.848a2.237 2.237 0 00-3.16 0 2.22 2.22 0 00-.655 1.58c0 .597.232 1.158.654 1.58zM34.752 4.125c-1.068 1.077-3.926 4.385-6.952 7.887-3.007 3.48-6.117 7.079-7.193 8.155a.978.978 0 01-.697.289.978.978 0 01-.696-.289l-4.463-4.463a.978.978 0 01-.288-.696.982.982 0 01.985-.985c.252 0 .504.097.696.289l3.321 3.32a.625.625 0 00.913-.03L30.498 6.02c0-.002.002-.003.003-.004l2.872-3.287a.971.971 0 01.679-.277h.004a.98.98 0 01.693.285.984.984 0 01.003 1.389z" fill="#E63619"/></svg>