<svg width="14" height="18" fill="none" xmlns="http://www.w3.org/2000/svg"><path d="M13.726 13.642a1.817 1.817 0 00-1.017-.805l-.052-.016a.908.908 0 00-.192-.038 2.613 2.613 0 00-1.61 1.18l-.25 3.523c-.038 0-.02 0 0 0l-.02.514h.198c2.566 0 3.047-2.15 3.088-2.368.214-.8.16-1.471-.145-1.99zM3.414 17.486l-.26-3.516c-.221-.2-.713-1.131-1.61-1.182a1.2 1.2 0 00-.192.038h-.036a1.81 1.81 0 00-1.04.81c-.31.514-.36 1.19-.146 1.99.042.216.52 2.369 3.089 2.369h.198l-.021-.515c.039.006.054.006.018.006zm1.604-13.67h.52v.838h-.884v3.811h4.714v-3.81h-.884v-.839h.52a.948.948 0 00.699-.308.926.926 0 00.235-.72L9.714.835a.922.922 0 00-.305-.598A.942.942 0 008.775 0h-3.53a.942.942 0 00-.631.238.922.922 0 00-.306.595L4.085 2.79a.918.918 0 00.234.72.938.938 0 00.7.309v-.003zm2.946.838H6.056v-.838h1.908v.838z" fill="#777"/><path d="M12.353 12.281l.078-.018h.133c-.208-1.26-.479-3.307-.357-4.93a2.428 2.428 0 00-.444-1.874c-.403-.491-1.04-.771-1.875-.81v8.946H4.132v-8.93c-.84.046-1.472.318-1.875.81a2.44 2.44 0 00-.447 1.874c.122 1.623-.149 3.67-.357 4.93a.184.184 0 00.037 0h.093c.94.054 1.506.771 1.82 1.167.038.054.08.105.123.154l.138.134.028.206v.18l.276 3.857h-.016V18h6.11l.042-1.029h.026l.226-3.168.068-.108c.21-.35.488-.657.82-.9a3.103 3.103 0 011.11-.514z" fill="#777"/><path d="M4.652 8.98h4.716v4.1H4.652v-4.1z" fill="#777"/></svg>