<?xml version="1.0" encoding="UTF-8" standalone="no"?>
<!-- Created with Inkscape (http://www.inkscape.org/) -->

<svg
   version="1.1"
   id="svg2472"
   xml:space="preserve"
   width="682.66669"
   height="682.66669"
   viewBox="0 0 682.66669 682.66669"
   xmlns="http://www.w3.org/2000/svg"
   xmlns:svg="http://www.w3.org/2000/svg"><defs
     id="defs2476"><clipPath
       clipPathUnits="userSpaceOnUse"
       id="clipPath2486"><path
         d="M 0,512 H 512 V 0 H 0 Z"
         id="path2484" /></clipPath></defs><g
     id="g2478"
     transform="matrix(1.3333333,0,0,-1.3333333,0,682.66667)"><g
       id="g2480"><g
         id="g2482"
         clip-path="url(#clipPath2486)"><g
           id="g2488"
           transform="translate(250.168,419.9697)"><path
             d="m 0,0 -184.074,-79.462 25.635,-26.405 -84.229,-58.103 84.229,-58.102 -25.635,-26.406 L 0,-327.939 c 22.659,-10.292 47.823,-16.031 74.332,-16.031 99.411,0 180,80.589 180,180 0,99.411 -80.589,180 -180,180 C 47.823,16.03 22.659,10.292 0,0 Z"
             style="fill:none;stroke:#000000;stroke-width:15;stroke-linecap:round;stroke-linejoin:round;stroke-miterlimit:10;stroke-dasharray:none;stroke-opacity:1"
             id="path2490" /></g><g
           id="g2492"
           transform="translate(208.3604,350.9268)"><path
             d="m 0,0 c -21.16,-25.858 -33.86,-58.908 -33.86,-94.927 0,-82.843 67.157,-150 150,-150 82.842,0 150,67.157 150,150 0,82.843 -67.158,150 -150,150 -36.019,0 -69.069,-12.7 -94.927,-33.86"
             style="fill:none;stroke:#000000;stroke-width:15;stroke-linecap:round;stroke-linejoin:round;stroke-miterlimit:10;stroke-dasharray:none;stroke-opacity:1"
             id="path2494" /></g><g
           id="g2496"
           transform="translate(444.5,256)"><path
             d="m 0,0 c 0,-66.274 -53.726,-120 -120,-120 -66.274,0 -120,53.726 -120,120 0,66.274 53.726,120 120,120 C -53.726,120 0,66.274 0,0 Z"
             style="fill:none;stroke:#000000;stroke-width:15;stroke-linecap:round;stroke-linejoin:round;stroke-miterlimit:10;stroke-dasharray:none;stroke-opacity:1"
             id="path2498" /></g><g
           id="g2500"
           transform="translate(345.5,256)"><path
             d="m 0,0 c 0,-11.598 -9.402,-21 -21,-21 -11.598,0 -21,9.402 -21,21 0,11.598 9.402,21 21,21 C -9.402,21 0,11.598 0,0 Z"
             style="fill:none;stroke:#000000;stroke-width:15;stroke-linecap:round;stroke-linejoin:round;stroke-miterlimit:10;stroke-dasharray:none;stroke-opacity:1"
             id="path2502" /></g><g
           id="g2504"
           transform="translate(324.5,277)"><path
             d="M 0,0 V 99"
             style="fill:none;stroke:#000000;stroke-width:15;stroke-linecap:round;stroke-linejoin:round;stroke-miterlimit:10;stroke-dasharray:none;stroke-opacity:1"
             id="path2506" /></g><g
           id="g2508"
           transform="translate(314,274.1865)"><path
             d="M 0,0 -49.5,85.736"
             style="fill:none;stroke:#000000;stroke-width:15;stroke-linecap:round;stroke-linejoin:round;stroke-miterlimit:10;stroke-dasharray:none;stroke-opacity:1"
             id="path2510" /></g><g
           id="g2512"
           transform="translate(306.3135,266.5)"><path
             d="M 0,0 -85.736,49.5"
             style="fill:none;stroke:#000000;stroke-width:15;stroke-linecap:round;stroke-linejoin:round;stroke-miterlimit:10;stroke-dasharray:none;stroke-opacity:1"
             id="path2514" /></g><g
           id="g2516"
           transform="translate(303.5,256)"><path
             d="M 0,0 H -99"
             style="fill:none;stroke:#000000;stroke-width:15;stroke-linecap:round;stroke-linejoin:round;stroke-miterlimit:10;stroke-dasharray:none;stroke-opacity:1"
             id="path2518" /></g><g
           id="g2520"
           transform="translate(306.3135,245.5)"><path
             d="M 0,0 -85.736,-49.5"
             style="fill:none;stroke:#000000;stroke-width:15;stroke-linecap:round;stroke-linejoin:round;stroke-miterlimit:10;stroke-dasharray:none;stroke-opacity:1"
             id="path2522" /></g><g
           id="g2524"
           transform="translate(314,237.8135)"><path
             d="M 0,0 -49.5,-85.736"
             style="fill:none;stroke:#000000;stroke-width:15;stroke-linecap:round;stroke-linejoin:round;stroke-miterlimit:10;stroke-dasharray:none;stroke-opacity:1"
             id="path2526" /></g><g
           id="g2528"
           transform="translate(324.5,235)"><path
             d="M 0,0 V -99"
             style="fill:none;stroke:#000000;stroke-width:15;stroke-linecap:round;stroke-linejoin:round;stroke-miterlimit:10;stroke-dasharray:none;stroke-opacity:1"
             id="path2530" /></g><g
           id="g2532"
           transform="translate(335,237.8135)"><path
             d="M 0,0 49.5,-85.736"
             style="fill:none;stroke:#000000;stroke-width:15;stroke-linecap:round;stroke-linejoin:round;stroke-miterlimit:10;stroke-dasharray:none;stroke-opacity:1"
             id="path2534" /></g><g
           id="g2536"
           transform="translate(342.6865,245.5)"><path
             d="M 0,0 85.736,-49.5"
             style="fill:none;stroke:#000000;stroke-width:15;stroke-linecap:round;stroke-linejoin:round;stroke-miterlimit:10;stroke-dasharray:none;stroke-opacity:1"
             id="path2538" /></g><g
           id="g2540"
           transform="translate(345.5,256)"><path
             d="M 0,0 H 99"
             style="fill:none;stroke:#000000;stroke-width:15;stroke-linecap:round;stroke-linejoin:round;stroke-miterlimit:10;stroke-dasharray:none;stroke-opacity:1"
             id="path2542" /></g><g
           id="g2544"
           transform="translate(342.6865,266.5)"><path
             d="M 0,0 85.736,49.5"
             style="fill:none;stroke:#000000;stroke-width:15;stroke-linecap:round;stroke-linejoin:round;stroke-miterlimit:10;stroke-dasharray:none;stroke-opacity:1"
             id="path2546" /></g><g
           id="g2548"
           transform="translate(335,274.1865)"><path
             d="M 0,0 49.5,85.736"
             style="fill:none;stroke:#000000;stroke-width:15;stroke-linecap:round;stroke-linejoin:round;stroke-miterlimit:10;stroke-dasharray:none;stroke-opacity:1"
             id="path2550" /></g></g></g></g></svg>
