<svg width="20" height="18" fill="none" xmlns="http://www.w3.org/2000/svg"><path fill-rule="evenodd" clip-rule="evenodd" d="M10 9.875c-.29 0-.526.24-.526.534 0 .296.237.535.526.535.29 0 .526-.24.526-.535A.531.531 0 0010 9.875zm0 2.139c-.87 0-1.579-.72-1.579-1.604 0-.885.708-1.605 1.579-1.605.243 0 .474.057.68.156l2.49-2.528a.52.52 0 01.744 0 .541.541 0 010 .756l-2.489 2.53c.098.208.154.444.154.69 0 .885-.709 1.605-1.579 1.605zm6.699 5.736a.518.518 0 01-.372-.157L14.84 16.08a.54.54 0 010-.756.52.52 0 01.744 0l1.105 1.122a9.131 9.131 0 002.24-5.503h-1.56a.53.53 0 01-.526-.535.53.53 0 01.526-.534h1.56a9.12 9.12 0 00-2.24-5.503l-1.105 1.122a.52.52 0 01-.744 0 .54.54 0 010-.756l1.105-1.124a8.797 8.797 0 00-5.418-2.28v1.59a.53.53 0 01-.526.534.53.53 0 01-.526-.534v-1.59a8.797 8.797 0 00-5.418 2.28L5.16 4.737a.54.54 0 010 .756.519.519 0 01-.744 0L3.312 4.37a9.126 9.126 0 00-2.24 5.505h1.56c.29 0 .526.24.526.534a.53.53 0 01-.526.535h-1.56c.114 1.98.86 3.93 2.24 5.503l1.105-1.122a.52.52 0 01.744 0 .54.54 0 010 .756l-1.488 1.512a.518.518 0 01-.745 0 10.201 10.201 0 01-2.923-7.11.563.563 0 010-.146c.017-2.578.992-5.15 2.923-7.112A9.857 9.857 0 0110 .25a9.857 9.857 0 017.072 2.975 10.203 10.203 0 012.923 7.112.556.556 0 010 .145 10.201 10.201 0 01-2.923 7.11.523.523 0 01-.373.158z" fill="#E63619"/></svg>