<svg width="70" height="70" fill="none" xmlns="http://www.w3.org/2000/svg"><path d="M65.702 30.32c-.274-7.974-3.43-15.432-8.97-21.102C50.925 3.273 43.206 0 35 0 18.426 0 4.883 13.502 4.3 30.32 1.77 31.47 0 34.062 0 37.073v8.296c0 4.073 3.238 7.388 7.22 7.388 2.576 0 4.67-2.144 4.67-4.78V34.464c0-2.476-1.854-4.494-4.213-4.734C8.547 15.077 20.467 3.427 35 3.427c7.313 0 14.19 2.918 19.366 8.215 4.752 4.864 7.534 11.204 7.953 18.089-2.357.242-4.209 2.26-4.209 4.733v13.511c0 2.496 1.885 4.528 4.271 4.739v3.414c0 3.846-3.057 6.973-6.814 6.973H50.52a5.132 5.132 0 00-1.18-1.948 4.962 4.962 0 00-3.582-1.522h-5.202c-.746 0-1.463.162-2.12.475-1.79.842-2.946 2.69-2.946 4.709 0 1.387.528 2.689 1.484 3.663A4.97 4.97 0 0040.556 70h5.202c2.156 0 4.057-1.427 4.766-3.472h5.043c5.604 0 10.163-4.665 10.163-10.4v-4.024c2.513-1.157 4.27-3.739 4.27-6.738v-8.295c0-3.01-1.77-5.6-4.298-6.75zM8.54 34.464v13.511c0 .746-.593 1.354-1.323 1.354-2.134 0-3.87-1.777-3.87-3.962v-8.295c0-2.186 1.736-3.962 3.87-3.962.73 0 1.323.608 1.323 1.354zm38.897 30.719c-.167.806-.874 1.392-1.681 1.392h-5.202c-.457 0-.887-.183-1.215-.518a1.76 1.76 0 01-.503-1.24c0-.684.392-1.309 1.006-1.598.219-.105.459-.159.712-.159h5.202c.457 0 .887.182 1.214.518.324.33.502.77.502 1.24.001.125-.012.25-.035.365zM66.65 45.367c0 2.185-1.736 3.962-3.87 3.962-.73 0-1.323-.607-1.323-1.354V34.464c0-.746.593-1.354 1.323-1.354 2.134 0 3.87 1.778 3.87 3.962v8.295z" fill="#E63619"/><path d="M45.841 45.958c3.913 0 7.095-3.258 7.095-7.26V23.902a7.3 7.3 0 00-2.08-5.132c-1.342-1.373-3.123-2.129-5.015-2.129H24.158c-3.912 0-7.094 3.257-7.094 7.26v14.795c0 4.005 3.182 7.261 7.095 7.261h.132v3.834c0 1.462.852 2.76 2.17 3.307a3.367 3.367 0 003.756-.797l6.23-6.344h9.394zM34.578 43.03l-6.744 6.865c-.03.032-.052.056-.116.027-.077-.032-.077-.083-.077-.129v-5.547c0-.946-.749-1.714-1.674-1.714H24.16c-2.066 0-3.746-1.72-3.746-3.834V23.903c0-2.115 1.68-3.834 3.746-3.834h21.683c.997 0 1.936.4 2.646 1.125.71.727 1.1 1.689 1.1 2.709v14.794c0 2.115-1.681 3.834-3.746 3.834H35.758c-.443 0-.867.18-1.18.498z" fill="#E63619"/><path d="M26.866 29.046c-1.361 0-2.47 1.135-2.47 2.528s1.11 2.528 2.47 2.528c1.363 0 2.473-1.135 2.473-2.528s-1.109-2.528-2.473-2.528zm8.133 0c-1.362 0-2.47 1.135-2.47 2.528s1.11 2.528 2.47 2.528c1.364 0 2.472-1.135 2.472-2.528S36.363 29.046 35 29.046zm8.132 0c-1.361 0-2.47 1.135-2.47 2.528s1.11 2.528 2.47 2.528c1.363 0 2.473-1.135 2.473-2.528s-1.11-2.528-2.473-2.528z" fill="#E63619"/></svg>