<svg width="20" height="20" fill="none" xmlns="http://www.w3.org/2000/svg"><g clip-path="url(#clip0_61_895)" fill="#E63619"><path d="M10 8.75a1.25 1.25 0 100 2.5 1.25 1.25 0 000-2.5zm0 1.875a.626.626 0 110-1.251.626.626 0 010 1.251z"/><path d="M16.85 3.15a9.687 9.687 0 10-13.7 13.7 9.688 9.688 0 1013.7-13.7zm-.442 13.258A9.063 9.063 0 113.592 3.592a9.063 9.063 0 0112.816 12.816z"/><path d="M10 3.125A6.883 6.883 0 003.125 10 6.883 6.883 0 0010 16.875 6.883 6.883 0 0016.875 10 6.883 6.883 0 0010 3.125zm5.03 3.17a6.218 6.218 0 011.15 2.768h-3.2a3.073 3.073 0 00-.21-.508l2.26-2.26zM10.939 3.82a6.217 6.217 0 012.767 1.15l-2.26 2.26a3.07 3.07 0 00-.508-.21v-3.2zm-1.876 0v3.2a3.073 3.073 0 00-.507.21l-2.26-2.26a6.218 6.218 0 012.768-1.15zM4.97 6.295l2.26 2.26a3.073 3.073 0 00-.21.508h-3.2a6.218 6.218 0 011.15-2.768zm0 7.41a6.217 6.217 0 01-1.15-2.768h3.2c.054.176.124.345.21.508l-2.26 2.26zm4.093 2.475a6.218 6.218 0 01-2.768-1.15l2.26-2.26c.163.086.332.156.508.21v3.2zm1.874 0v-3.2a3.07 3.07 0 00.508-.21l2.26 2.26a6.218 6.218 0 01-2.768 1.15zm4.094-2.475l-2.26-2.26a3.07 3.07 0 00.21-.508h3.199a6.218 6.218 0 01-1.15 2.768zm-2.29-3.393a.313.313 0 00-.304.244c-.062.274-.17.536-.32.774a.313.313 0 00.043.388l2.473 2.473c-.14.154-.288.302-.442.442l-2.473-2.473a.313.313 0 00-.388-.044c-.238.15-.5.259-.774.321a.313.313 0 00-.243.305v3.5a6.475 6.475 0 01-.626 0v-3.5a.313.313 0 00-.243-.305 2.478 2.478 0 01-.774-.32.313.313 0 00-.388.043l-2.473 2.473a6.222 6.222 0 01-.442-.442l2.473-2.473a.313.313 0 00.044-.388 2.48 2.48 0 01-.321-.774.313.313 0 00-.305-.243h-3.5a6.216 6.216 0 010-.626h3.5a.313.313 0 00.305-.243 2.48 2.48 0 01.32-.774.313.313 0 00-.043-.388L5.367 5.809c.14-.154.288-.302.442-.442L8.282 7.84a.313.313 0 00.388.044c.238-.15.5-.259.774-.321a.313.313 0 00.243-.305v-3.5a6.216 6.216 0 01.626 0v3.5a.313.313 0 00.243.305c.274.062.536.17.774.32a.313.313 0 00.388-.043l2.473-2.473c.154.14.302.288.442.442L12.16 8.282a.313.313 0 00-.044.388c.15.238.259.5.321.774a.313.313 0 00.305.243h3.5a6.475 6.475 0 010 .626h-3.5z"/></g><defs><clipPath id="clip0_61_895"><path fill="#fff" d="M0 0h20v20H0z"/></clipPath></defs></svg>