<svg width="159" height="40" fill="none" xmlns="http://www.w3.org/2000/svg"><g clip-path="url(#clip0_199_269)" fill="#E63619"><path d="M27.026 12.113a14.073 14.073 0 00-6.798-3.16c-5.298-.943-7.249-4.026-7.581-4.634l-.01-.017a.504.504 0 00-.044-.052.65.65 0 00-.825-.23.66.66 0 00-.363.665c0 .019.006.036.008.054a.66.66 0 00.016.102l.023.078c.528 1.763 2.12 6.014 5.507 7.385A2.648 2.648 0 0118.62 14.2a14.096 14.096 0 00-2.398 1.885 9.468 9.468 0 01-1.108-2.38 23.418 23.418 0 00-.343-.917 5.642 5.642 0 00-1.043-1.778c-.947-1.007-2.389-1.172-3.547-1.305l-.413-.049A10.985 10.985 0 013.49 6.328C2.333 4.932 2.322 2.83 2.484.757a.706.706 0 00-.567-.732C1.24-.08 1.218-.015.305 3.545c-.955 3.742 1.037 8.739 5.13 9.825 4.592 1.216 6.459 2.452 6.05 4.009-.132.495-.303 1.155-.46 1.613a13.97 13.97 0 01-.542-1.513c-1.372-4.46-7.834-2.931-8.108-2.865a.665.665 0 00-.169 1.227l.212.118c1.299.722 2.77 1.542 3.657 2.686.567.732.607 1.688.649 2.702a8.643 8.643 0 00.298 2.273c.526 1.682 1.912 2.593 3.25 3.473a9.987 9.987 0 012.034 1.596c1.374 7.104 7.948 11.981 15.145 11.236 7.197-.745 12.632-6.865 12.522-14.1-.11-7.235-5.73-13.187-12.947-13.712zm-9.575-1.04a7.247 7.247 0 01-3.334-3.246 13.71 13.71 0 005.874 2.435 13.11 13.11 0 014.829 1.862c-1.745.15-3.446.629-5.012 1.412a4.008 4.008 0 00-2.357-2.462zm-6.444 14.908c-1.197-.786-2.328-1.53-2.713-2.759a7.603 7.603 0 01-.238-1.928 5.699 5.699 0 00-.929-3.464 9.544 9.544 0 00-2.574-2.174c1.7-.088 4.033.186 4.654 2.214.576 1.867 1.05 2.9 1.872 2.86.903-.018 1.197-1.144 1.688-3.01.928-3.535-4.424-4.951-6.996-5.633-2.933-.782-4.539-4.064-4.367-6.974a5.557 5.557 0 001.064 2.062 12.298 12.298 0 007.13 3.802l.43.05c1.04.12 2.116.243 2.73.895.338.407.602.87.779 1.367.108.266.214.562.323.865.31 1.05.8 2.04 1.447 2.923a13.9 13.9 0 00-3.259 8.95c0 .234.024.465.035.694a25.828 25.828 0 00-1.075-.74h-.001zm15.006 12.68c-6.978 0-12.635-5.656-12.635-12.635 0-6.977 5.657-12.634 12.635-12.634s12.635 5.657 12.635 12.634c-.008 6.975-5.66 12.628-12.635 12.635z"/><path d="M34.539 24.651v-.003a8.651 8.651 0 00-7.192-7.153h-.004c-.88-.15-1.78-.15-2.66 0h-.005a8.651 8.651 0 00-7.19 7.153v.003a8.536 8.536 0 004.58 9.058l.005.005a.671.671 0 00.096.043 8.54 8.54 0 007.577.055.655.655 0 00.21-.098l.004-.005a8.535 8.535 0 004.579-9.058zm-4.788 7.647l-2.763-3.806c.415-.169.781-.44 1.064-.787l2.77 3.811c-.331.294-.69.557-1.07.786l-.001-.004zm-8.552-.778l2.77-3.812c.283.348.65.619 1.064.787l-2.762 3.807c-.38-.228-.74-.49-1.072-.782zm-1.906-8.38l4.482 1.459c-.24.38-.38.815-.405 1.264l-4.485-1.457c.097-.433.234-.856.408-1.264v-.001zm8.05 2.886a1.33 1.33 0 11-2.66 0 1.33 1.33 0 012.66 0zm1.314-.163a2.636 2.636 0 00-.406-1.264l4.483-1.458c.173.408.31.83.407 1.263l-4.484 1.459zm3.429-3.91l-4.078 1.33v-4.288a7.335 7.335 0 014.078 2.959zm-5.408-3.208v4.716a2.386 2.386 0 00-1.33 0v-4.716c.22-.02.44-.034.665-.034.225 0 .446.014.665.034zm-2.66.25v4.285l-4.078-1.33a7.336 7.336 0 014.078-2.955zm-5.306 6.752l4.075 1.325-2.52 3.467a7.272 7.272 0 01-1.569-4.513c0-.094.01-.185.014-.279zm4.782 7.138l2.52-3.467 2.518 3.47a7.185 7.185 0 01-5.038 0v-.003zm8.265-2.346l-2.52-3.468 4.075-1.324c.003.094.014.185.014.28a7.272 7.272 0 01-1.57 4.512z"/><path d="M22.821 16.703a.665.665 0 00-.266-1.303c-.148.029-3.653.78-6.432 5.642a.664.664 0 00.58.995.666.666 0 00.578-.333c2.449-4.288 5.492-4.987 5.54-5.001zm3.192-1.316a.665.665 0 11-1.33 0 .665.665 0 011.33 0z"/><g clip-path="url(#clip1_199_269)"><path d="M27.026 12.113a14.073 14.073 0 00-6.798-3.16c-5.298-.943-7.249-4.026-7.581-4.634l-.01-.017a.504.504 0 00-.044-.052.65.65 0 00-.825-.23.66.66 0 00-.363.665c0 .019.006.036.008.054a.66.66 0 00.016.102l.023.078c.528 1.763 2.12 6.014 5.507 7.385A2.648 2.648 0 0118.62 14.2a14.096 14.096 0 00-2.398 1.885 9.468 9.468 0 01-1.108-2.38 23.418 23.418 0 00-.343-.917 5.642 5.642 0 00-1.043-1.778c-.947-1.007-2.389-1.172-3.547-1.305l-.413-.049A10.985 10.985 0 013.49 6.328C2.333 4.932 2.322 2.83 2.484.757a.706.706 0 00-.567-.732C1.24-.08 1.218-.015.305 3.545c-.955 3.742 1.037 8.739 5.13 9.825 4.592 1.216 6.459 2.452 6.05 4.009-.132.495-.303 1.155-.46 1.613a13.97 13.97 0 01-.542-1.513c-1.372-4.46-7.834-2.931-8.108-2.865a.665.665 0 00-.169 1.227l.212.118c1.299.722 2.77 1.542 3.657 2.686.567.732.607 1.688.649 2.702a8.643 8.643 0 00.298 2.273c.526 1.682 1.912 2.593 3.25 3.473a9.987 9.987 0 012.034 1.596c1.374 7.104 7.948 11.981 15.145 11.236 7.197-.745 12.632-6.865 12.522-14.1-.11-7.235-5.73-13.187-12.947-13.712zm-9.575-1.04a7.247 7.247 0 01-3.334-3.246 13.71 13.71 0 005.874 2.435 13.11 13.11 0 014.829 1.862c-1.745.15-3.446.629-5.012 1.412a4.008 4.008 0 00-2.357-2.462zm-6.444 14.908c-1.197-.786-2.328-1.53-2.713-2.759a7.603 7.603 0 01-.238-1.928 5.699 5.699 0 00-.929-3.464 9.544 9.544 0 00-2.574-2.174c1.7-.088 4.033.186 4.654 2.214.576 1.867 1.05 2.9 1.872 2.86.903-.018 1.197-1.144 1.688-3.01.928-3.535-4.424-4.951-6.996-5.633-2.933-.782-4.539-4.064-4.367-6.974a5.557 5.557 0 001.064 2.062 12.298 12.298 0 007.13 3.802l.43.05c1.04.12 2.116.243 2.73.895.338.407.602.87.779 1.367.108.266.214.562.323.865.31 1.05.8 2.04 1.447 2.923a13.9 13.9 0 00-3.259 8.95c0 .234.024.465.035.694a25.828 25.828 0 00-1.075-.74h-.001zm15.006 12.68c-6.978 0-12.635-5.656-12.635-12.635 0-6.977 5.657-12.634 12.635-12.634s12.635 5.657 12.635 12.634c-.008 6.975-5.66 12.628-12.635 12.635z"/><path d="M34.539 24.651v-.003a8.651 8.651 0 00-7.192-7.153h-.004c-.88-.15-1.78-.15-2.66 0h-.005a8.651 8.651 0 00-7.19 7.153v.003a8.536 8.536 0 004.58 9.058l.005.005a.671.671 0 00.096.043 8.54 8.54 0 007.577.055.655.655 0 00.21-.098l.004-.005a8.535 8.535 0 004.579-9.058zm-4.788 7.647l-2.763-3.806c.415-.169.781-.44 1.064-.787l2.77 3.811c-.331.294-.69.557-1.07.786l-.001-.004zm-8.552-.778l2.77-3.812c.283.348.65.619 1.064.787l-2.762 3.807c-.38-.228-.74-.49-1.072-.782zm-1.906-8.38l4.482 1.459c-.24.38-.38.815-.405 1.264l-4.485-1.457c.097-.433.234-.856.408-1.264v-.001zm8.05 2.886a1.33 1.33 0 11-2.66 0 1.33 1.33 0 012.66 0zm1.314-.163a2.636 2.636 0 00-.406-1.264l4.483-1.458c.173.408.31.83.407 1.263l-4.484 1.459zm3.429-3.91l-4.078 1.33v-4.288a7.335 7.335 0 014.078 2.959zm-5.408-3.208v4.716a2.386 2.386 0 00-1.33 0v-4.716c.22-.02.44-.034.665-.034.225 0 .446.014.665.034zm-2.66.25v4.285l-4.078-1.33a7.336 7.336 0 014.078-2.955zm-5.306 6.752l4.075 1.325-2.52 3.467a7.272 7.272 0 01-1.569-4.513c0-.094.01-.185.014-.279zm4.782 7.138l2.52-3.467 2.518 3.47a7.185 7.185 0 01-5.038 0v-.003zm8.265-2.346l-2.52-3.468 4.075-1.324c.003.094.014.185.014.28a7.272 7.272 0 01-1.57 4.512z"/><path d="M22.821 16.703a.665.665 0 00-.266-1.303c-.148.029-3.653.78-6.432 5.642a.664.664 0 00.58.995.666.666 0 00.578-.333c2.449-4.288 5.492-4.987 5.54-5.001zm3.192-1.316a.665.665 0 11-1.33 0 .665.665 0 011.33 0z"/></g></g><path d="M53.68 31.5V8.82h5.012v9.268L62.5 8.82h4.9l-4.2 10.248L67.596 31.5H62.5l-3.276-10.024-.532.896V31.5H53.68zm15.887 0V8.82h10.192v3.416h-5.18v5.628h3.948v3.472h-3.948v6.776h5.236V31.5H69.567zm15.38 0v-9.268L80.633 8.82h4.732l2.156 7.168 1.932-7.168h4.536l-4.228 13.412V31.5h-4.816zm10.649 0l.392-22.68h5.376l2.492 13.188 2.688-13.188h5.18l.392 22.68h-3.556l-.42-15.092-2.632 15.092h-3.164l-2.8-15.204-.336 15.204h-3.612zm26.295.336c-1.699 0-3.043-.299-4.032-.896-.989-.597-1.699-1.456-2.128-2.576-.429-1.12-.644-2.455-.644-4.004v-8.428c0-1.568.215-2.903.644-4.004.429-1.101 1.139-1.941 2.128-2.52.989-.597 2.333-.896 4.032-.896 1.717 0 3.071.299 4.06.896 1.008.579 1.727 1.419 2.156 2.52.429 1.101.644 2.436.644 4.004v8.428c0 1.55-.215 2.884-.644 4.004-.429 1.12-1.148 1.979-2.156 2.576-.989.597-2.343.896-4.06.896zm0-3.556c.523 0 .905-.13 1.148-.392.243-.261.401-.597.476-1.008a7 7 0 00.112-1.26V14.7c0-.448-.037-.868-.112-1.26-.075-.41-.233-.747-.476-1.008-.243-.261-.625-.392-1.148-.392-.485 0-.849.13-1.092.392-.243.261-.401.597-.476 1.008a6.705 6.705 0 00-.112 1.26v10.92c0 .43.028.85.084 1.26.075.41.224.747.448 1.008.243.261.625.392 1.148.392zm11.735 3.22V12.544h-3.416V8.82h11.844v3.724h-3.388V31.5h-5.04zm16.702.336c-1.698 0-3.042-.299-4.032-.896-.989-.597-1.698-1.456-2.128-2.576-.429-1.12-.644-2.455-.644-4.004v-8.428c0-1.568.215-2.903.644-4.004.43-1.101 1.139-1.941 2.128-2.52.99-.597 2.334-.896 4.032-.896 1.718 0 3.071.299 4.06.896 1.008.579 1.727 1.419 2.156 2.52.43 1.101.644 2.436.644 4.004v8.428c0 1.55-.214 2.884-.644 4.004-.429 1.12-1.148 1.979-2.156 2.576-.989.597-2.342.896-4.06.896zm0-3.556c.523 0 .906-.13 1.148-.392.243-.261.402-.597.476-1.008a7 7 0 00.112-1.26V14.7c0-.448-.037-.868-.112-1.26-.074-.41-.233-.747-.476-1.008-.242-.261-.625-.392-1.148-.392-.485 0-.849.13-1.092.392-.242.261-.401.597-.476 1.008a6.79 6.79 0 00-.112 1.26v10.92c0 .43.028.85.084 1.26.075.41.224.747.448 1.008.243.261.626.392 1.148.392z" fill="#fff"/><defs><clipPath id="clip0_199_269"><path fill="#fff" d="M0 0h40v40H0z"/></clipPath><clipPath id="clip1_199_269"><path fill="#fff" d="M0 0h40v40H0z"/></clipPath></defs></svg>